<svg width="20" height="20" viewBox="0 0 20 20" fill="none" xmlns="http://www.w3.org/2000/svg">
<path d="M15.81 0.715925L9.99998 6.52624C8.06342 4.5903 6.12623 2.65249 4.18935 0.715925C1.94873 -1.5247 -1.5244 1.94968 0.714354 4.19093C2.65154 6.12624 4.58935 8.06436 6.52435 10.0009C4.58847 11.9384 2.6518 13.875 0.714354 15.8109C-1.5244 18.0509 1.94904 21.5244 4.18935 19.2859C6.12592 17.3487 8.0631 15.4112 9.99967 13.4753L15.8097 19.2859C18.0503 21.5259 21.5244 18.0512 19.2847 15.8109C17.3475 13.8737 15.4109 11.9372 13.4731 10.0003C15.4106 8.06311 17.3472 6.12593 19.2847 4.18905C21.5247 1.94968 18.0506 -1.5247 15.8097 0.717175" fill="#FFAD00"/>
</svg>
