<svg width="25" height="27" viewBox="0 0 25 27" fill="none" xmlns="http://www.w3.org/2000/svg">
<path d="M8.125 3.29167C7.73823 3.29167 7.3673 3.44532 7.09381 3.71881C6.82031 3.9923 6.66667 4.36323 6.66667 4.75C6.66667 5.13678 6.82031 5.50771 7.09381 5.7812C7.3673 6.05469 7.73823 6.20834 8.125 6.20834C8.51178 6.20834 8.88271 6.05469 9.1562 5.7812C9.42969 5.50771 9.58334 5.13678 9.58334 4.75C9.58334 4.36323 9.42969 3.9923 9.1562 3.71881C8.88271 3.44532 8.51178 3.29167 8.125 3.29167ZM3.99792 3.29167C4.29921 2.43777 4.85796 1.69834 5.59713 1.17532C6.3363 0.652298 7.2195 0.371429 8.125 0.371429C9.0305 0.371429 9.91371 0.652298 10.6529 1.17532C11.392 1.69834 11.9508 2.43777 12.2521 3.29167H22.7083C23.0951 3.29167 23.466 3.44532 23.7395 3.71881C24.013 3.9923 24.1667 4.36323 24.1667 4.75C24.1667 5.13678 24.013 5.50771 23.7395 5.7812C23.466 6.05469 23.0951 6.20834 22.7083 6.20834H12.2521C11.9508 7.06224 11.392 7.80166 10.6529 8.32469C9.91371 8.84771 9.0305 9.12858 8.125 9.12858C7.2195 9.12858 6.3363 8.84771 5.59713 8.32469C4.85796 7.80166 4.29921 7.06224 3.99792 6.20834H2.29167C1.9049 6.20834 1.53396 6.05469 1.26047 5.7812C0.986982 5.50771 0.833336 5.13678 0.833336 4.75C0.833336 4.36323 0.986982 3.9923 1.26047 3.71881C1.53396 3.44532 1.9049 3.29167 2.29167 3.29167H3.99792ZM16.875 12.0417C16.4882 12.0417 16.1173 12.1953 15.8438 12.4688C15.5703 12.7423 15.4167 13.1132 15.4167 13.5C15.4167 13.8868 15.5703 14.2577 15.8438 14.5312C16.1173 14.8047 16.4882 14.9583 16.875 14.9583C17.2618 14.9583 17.6327 14.8047 17.9062 14.5312C18.1797 14.2577 18.3333 13.8868 18.3333 13.5C18.3333 13.1132 18.1797 12.7423 17.9062 12.4688C17.6327 12.1953 17.2618 12.0417 16.875 12.0417ZM12.7479 12.0417C13.0492 11.1878 13.608 10.4483 14.3471 9.92532C15.0863 9.4023 15.9695 9.12143 16.875 9.12143C17.7805 9.12143 18.6637 9.4023 19.4029 9.92532C20.142 10.4483 20.7008 11.1878 21.0021 12.0417H22.7083C23.0951 12.0417 23.466 12.1953 23.7395 12.4688C24.013 12.7423 24.1667 13.1132 24.1667 13.5C24.1667 13.8868 24.013 14.2577 23.7395 14.5312C23.466 14.8047 23.0951 14.9583 22.7083 14.9583H21.0021C20.7008 15.8122 20.142 16.5517 19.4029 17.0747C18.6637 17.5977 17.7805 17.8786 16.875 17.8786C15.9695 17.8786 15.0863 17.5977 14.3471 17.0747C13.608 16.5517 13.0492 15.8122 12.7479 14.9583H2.29167C1.9049 14.9583 1.53396 14.8047 1.26047 14.5312C0.986982 14.2577 0.833336 13.8868 0.833336 13.5C0.833336 13.1132 0.986982 12.7423 1.26047 12.4688C1.53396 12.1953 1.9049 12.0417 2.29167 12.0417H12.7479ZM8.125 20.7917C7.73823 20.7917 7.3673 20.9453 7.09381 21.2188C6.82031 21.4923 6.66667 21.8632 6.66667 22.25C6.66667 22.6368 6.82031 23.0077 7.09381 23.2812C7.3673 23.5547 7.73823 23.7083 8.125 23.7083C8.51178 23.7083 8.88271 23.5547 9.1562 23.2812C9.42969 23.0077 9.58334 22.6368 9.58334 22.25C9.58334 21.8632 9.42969 21.4923 9.1562 21.2188C8.88271 20.9453 8.51178 20.7917 8.125 20.7917ZM3.99792 20.7917C4.29921 19.9378 4.85796 19.1983 5.59713 18.6753C6.3363 18.1523 7.2195 17.8714 8.125 17.8714C9.0305 17.8714 9.91371 18.1523 10.6529 18.6753C11.392 19.1983 11.9508 19.9378 12.2521 20.7917H22.7083C23.0951 20.7917 23.466 20.9453 23.7395 21.2188C24.013 21.4923 24.1667 21.8632 24.1667 22.25C24.1667 22.6368 24.013 23.0077 23.7395 23.2812C23.466 23.5547 23.0951 23.7083 22.7083 23.7083H12.2521C11.9508 24.5622 11.392 25.3017 10.6529 25.8247C9.91371 26.3477 9.0305 26.6286 8.125 26.6286C7.2195 26.6286 6.3363 26.3477 5.59713 25.8247C4.85796 25.3017 4.29921 24.5622 3.99792 23.7083H2.29167C1.9049 23.7083 1.53396 23.5547 1.26047 23.2812C0.986982 23.0077 0.833336 22.6368 0.833336 22.25C0.833336 21.8632 0.986982 21.4923 1.26047 21.2188C1.53396 20.9453 1.9049 20.7917 2.29167 20.7917H3.99792Z" fill="white"/>
</svg>
