<svg width="25" height="26" viewBox="0 0 25 26" fill="none" xmlns="http://www.w3.org/2000/svg">
<path d="M10.75 0.687501L1.99998 7.25C1.27081 7.80417 0.833313 8.66459 0.833313 9.58333V22.7083C0.833313 24.3125 2.14581 25.625 3.74998 25.625H21.25C22.8542 25.625 24.1667 24.3125 24.1667 22.7083V9.58333C24.1667 8.66459 23.7292 7.80417 23 7.25L14.25 0.687501C13.7442 0.311084 13.1305 0.107788 12.5 0.107788C11.8695 0.107788 11.2558 0.311084 10.75 0.687501ZM13.2291 13.2292C13.2291 14.4396 12.2521 15.4167 11.0416 15.4167V20.5208C11.0416 20.9292 10.7208 21.25 10.3125 21.25C9.90415 21.25 9.58331 20.9292 9.58331 20.5208V15.4167C8.3729 15.4167 7.39581 14.4396 7.39581 13.2292V9.58333C7.39581 9.175 7.71665 8.85417 8.12498 8.85417C8.53332 8.85417 8.85415 9.175 8.85415 9.58333V13.2292H9.58331V9.58333C9.58331 9.175 9.90415 8.85417 10.3125 8.85417C10.7208 8.85417 11.0416 9.175 11.0416 9.58333V13.2292H11.7708V9.58333C11.7708 9.175 12.0916 8.85417 12.5 8.85417C12.9083 8.85417 13.2291 9.175 13.2291 9.58333V13.2292ZM16.1458 21.25C15.7375 21.25 15.4167 20.9292 15.4167 20.5208V16.1458H14.6875C14.2792 16.1458 13.9583 15.825 13.9583 15.4167V11.7708C13.9583 10.4875 14.7896 9.39375 15.9417 9.01458C16.3937 8.85417 16.875 9.21875 16.875 9.71459V20.5208C16.875 20.9292 16.5542 21.25 16.1458 21.25Z" fill="#FFAD00"/>
</svg>
