<svg width="24" height="29" viewBox="0 0 24 29" fill="none" xmlns="http://www.w3.org/2000/svg">
<path d="M15.8797 19.2553L15.8662 18.5452L15.7985 8.0912V7.30722C15.7979 7.24954 15.782 7.19304 15.7524 7.14357C15.7228 7.0941 15.6805 7.05345 15.6299 7.02582C15.5793 6.99818 15.5222 6.98458 15.4646 6.9864C15.407 6.98822 15.3509 7.00541 15.3022 7.03618C15.1887 7.09378 15.0808 7.16183 14.9799 7.23946C14.2853 7.7585 12.6875 9.38881 12.6875 13.4347C12.6875 16.2624 12.9488 16.5517 13.5297 17.4746C14.1106 18.3975 14.1797 19.6239 14.1878 19.9492C12.6707 20.3892 11.0607 20.3946 9.54068 19.9648V19.4803L9.45335 15.5251C9.43642 14.8164 9.42017 14.153 9.40392 13.5547C9.39547 13.4905 9.40936 13.4253 9.44327 13.3701C9.47718 13.315 9.52903 13.2732 9.59011 13.2518C10.0716 13.0336 10.4532 12.6416 10.6585 12.1541C10.8365 11.7475 10.8886 11.3118 10.9083 10.8727C10.9306 10.1448 10.913 9.4162 10.8555 8.6902C10.8304 8.30397 10.7695 7.9218 10.5786 7.57487L10.3978 7.42309C10.2719 7.37431 10.1466 7.32145 10.0173 7.28215C9.87243 7.23743 9.8142 7.28215 9.80337 7.4319C9.78848 7.69549 9.78441 7.95975 9.77832 8.22469C9.76207 8.98021 9.74718 9.73709 9.72958 10.4933C9.72876 10.5697 9.7183 10.6458 9.69843 10.7196C9.66458 10.8409 9.57521 10.8978 9.44116 10.8992C9.38386 10.9058 9.32609 10.8916 9.27828 10.8593C9.23048 10.827 9.1958 10.7787 9.1805 10.723C9.159 10.6492 9.14561 10.5733 9.14056 10.4967C9.05841 9.48841 8.97807 8.47969 8.89954 7.47052C8.89954 7.43597 8.89345 7.40276 8.88735 7.36888C8.86704 7.26996 8.82574 7.22659 8.7269 7.2232C8.59961 7.21846 8.47166 7.2232 8.34437 7.2232C8.25975 7.2232 8.2347 7.28283 8.22928 7.35465C8.20558 7.63518 8.18392 7.91571 8.16158 8.19623C8.10065 8.96418 8.03926 9.73212 7.97743 10.5001C7.97199 10.5766 7.95791 10.6523 7.93545 10.7257C7.89483 10.8565 7.79192 10.91 7.63079 10.8958C7.57295 10.8952 7.51747 10.8727 7.47552 10.8329C7.43357 10.793 7.40825 10.7388 7.40466 10.681C7.38841 10.5312 7.38232 10.3808 7.37961 10.2304C7.36156 9.32692 7.3444 8.42571 7.32816 7.52676C7.32997 7.49207 7.32287 7.45749 7.30753 7.42633C7.29219 7.39516 7.26913 7.36845 7.24054 7.34874C7.21196 7.32904 7.1788 7.31699 7.14424 7.31375C7.10968 7.31052 7.07487 7.3162 7.04313 7.33026C6.95068 7.36666 6.86028 7.40806 6.77231 7.45426L6.67482 7.53896C6.52858 7.78104 6.44655 8.0565 6.43651 8.33921C6.4013 8.83589 6.36407 9.32918 6.35053 9.82518C6.32278 10.4074 6.34998 10.9909 6.43177 11.568C6.56718 12.415 7.03432 13.0112 7.84067 13.3297C7.99571 13.3907 8.01669 13.4212 8.01331 13.5906C8.00857 13.8176 8.00383 14.0453 7.99774 14.2729C7.98758 14.6687 7.97743 15.103 7.96727 15.5651V15.6471L7.93071 17.4529C7.92191 17.8933 7.91378 18.346 7.90566 18.8047L7.89618 19.3109C7.20413 18.9439 6.56618 18.4829 6.0005 17.9408C5.90843 17.8486 5.84208 17.7809 5.81567 17.7551C4.25798 16.1748 3.3848 14.044 3.38514 11.8241C3.38514 7.18797 7.12572 3.41103 11.7451 3.35411H11.8304C13.4872 3.35813 15.1064 3.84908 16.4869 4.76601C17.8674 5.68294 18.9484 6.98547 19.5957 8.5119C20.2431 10.0383 20.4282 11.7214 20.1282 13.3522C19.8282 14.983 19.0562 16.4898 17.9081 17.6853C17.8539 17.7368 17.684 17.9116 17.4714 18.1312C16.9856 18.5661 16.4516 18.9438 15.8797 19.2567V19.2553ZM23.6493 11.2414C23.3304 4.94647 18.1444 0.0121968 11.8372 0H11.8284C5.52117 0.0121968 0.334452 4.94647 0.0155717 11.2414C0.00541623 11.4392 0 11.6411 0 11.8424C0 12.0192 0.00541623 12.1954 0.0135406 12.3702C0.0135406 12.3872 0.0135406 12.4034 0.0135406 12.4204C0.0223419 12.5871 0.0338514 12.7524 0.0494231 12.9177L0.0555163 12.9855C0.071765 13.1477 0.0909475 13.3083 0.113064 13.4673L0.123219 13.5418C0.146238 13.7017 0.172417 13.8598 0.201754 14.0161C0.205817 14.0378 0.210556 14.0595 0.214618 14.0839C0.245761 14.2452 0.282321 14.4051 0.317526 14.5636C0.317526 14.5779 0.324297 14.5914 0.327682 14.6056C0.44965 15.114 0.605489 15.6136 0.794154 16.1011C0.794154 16.1092 0.800247 16.1174 0.802956 16.1248C0.864565 16.2827 0.928883 16.4379 0.996586 16.5917C1.00065 16.6018 1.00539 16.6113 1.00945 16.6215C1.07805 16.7755 1.14937 16.9275 1.22339 17.0775C1.22678 17.0856 1.23084 17.0931 1.23422 17.1006C1.31073 17.2544 1.39062 17.4055 1.47321 17.5552V17.5593C1.89749 18.326 2.40519 19.0434 2.98705 19.6985C3.04121 19.7595 3.09876 19.8177 3.15428 19.8774L3.14886 19.8814L7.4683 24.3285L11.9367 28.9524L11.9407 28.9477L11.9455 28.9524L17.967 22.5573L20.514 19.9004C20.5729 19.8374 20.6372 19.7696 20.6947 19.7052C21.2711 19.0479 21.7729 18.3286 22.191 17.5606V17.5566C22.2742 17.4068 22.3534 17.2557 22.4293 17.1019C22.4335 17.0944 22.4374 17.0868 22.4408 17.0789C22.5153 16.9284 22.587 16.7767 22.6547 16.6228C22.6588 16.6127 22.6635 16.6032 22.6676 16.593C22.7353 16.4392 22.7996 16.284 22.8612 16.1262C22.8646 16.1184 22.8675 16.1105 22.87 16.1025C23.0587 15.6149 23.2145 15.1153 23.3365 14.607C23.3399 14.5928 23.3439 14.5792 23.3473 14.565C23.3843 14.4064 23.4184 14.2465 23.4496 14.0852C23.4536 14.0636 23.4584 14.0419 23.4624 14.0175C23.4918 13.8598 23.5179 13.7017 23.541 13.5432C23.5443 13.5181 23.5484 13.4937 23.5518 13.4686C23.5735 13.3094 23.5931 13.1488 23.6087 12.9869L23.6147 12.9191C23.6296 12.7538 23.6425 12.5884 23.6506 12.4217V12.3716C23.6588 12.1968 23.6635 12.0206 23.6635 11.8437C23.6635 11.6405 23.6588 11.4372 23.6479 11.2427" fill="#FEBE10"/>
</svg>
