<svg width="30" height="30" viewBox="0 0 30 30" fill="none" xmlns="http://www.w3.org/2000/svg">
  <path d="M26.25 13.5352V24.375C26.25 24.8723 26.0525 25.3492 25.7008 25.7008C25.3492 26.0525 24.8723 26.25 24.375 26.25H5.625C5.12772 26.25 4.65081 26.0525 4.29917 25.7008C3.94754 25.3492 3.75 24.8723 3.75 24.375V13.5352C3.75008 13.275 3.8043 13.0177 3.90921 12.7797C4.01412 12.5416 4.16743 12.328 4.35938 12.1524L13.7344 3.63283C14.08 3.31661 14.5315 3.14124 15 3.14124C15.4685 3.14124 15.92 3.31661 16.2656 3.63283L25.6406 12.1524C25.8326 12.328 25.9859 12.5416 26.0908 12.7797C26.1957 13.0177 26.2499 13.275 26.25 13.5352Z" fill="#FFAD00"/>
  <g clip-path="url(#clip0_953_127)">
  <path fill-rule="evenodd" clip-rule="evenodd" d="M8.77478 17.2565C9.24407 16.9364 9.48008 16.5173 9.43939 15.5584V13.0925C9.43532 12.748 8.81005 12.706 8.77885 13.0925L8.75444 15.0931C8.75308 15.4675 8.1902 15.4797 8.19156 15.0931L8.21597 13.0247C8.20919 12.6544 7.6124 12.6178 7.60426 13.0247C7.60426 13.5985 7.57985 14.5194 7.57985 15.0931C7.60969 15.4553 7.0875 15.5028 7.10106 15.0931L7.12683 13.0369C7.11327 12.7575 6.80674 12.6585 6.59786 12.7887C6.37542 12.9311 6.42018 13.216 6.41069 13.456L6.33337 15.8161C6.34558 16.5024 6.52597 17.0598 7.06308 17.2972C7.14446 17.3325 7.2584 17.3609 7.38996 17.3813L7.20414 23.1349C7.19329 23.4767 7.4727 23.7547 7.79957 23.7547H7.87417C8.2431 23.7547 8.5537 23.44 8.5442 23.0562L8.38144 17.3786C8.55234 17.3514 8.69476 17.3121 8.77478 17.2565ZM21.7088 18.7241H21.9095C21.9095 20.193 21.9041 21.8897 21.8566 23.3519C21.8363 23.912 22.8861 23.8903 22.8671 23.2936L22.8278 18.7241H23V12.6667C20.8326 12.999 21.58 17.1955 21.7088 18.7241ZM20.6509 18.2426C20.6509 19.7223 20.13 20.9851 19.0884 22.0281C18.044 23.0725 16.7826 23.5947 15.3028 23.5947C13.8298 23.5947 12.5671 23.0738 11.5214 22.0281C10.477 20.9851 9.95208 19.7223 9.95208 18.2426C9.95208 16.7669 10.4756 15.5095 11.5214 14.4638C12.5698 13.4194 13.8298 12.8945 15.3028 12.8945C16.7826 12.8945 18.044 13.4181 19.0884 14.4638C20.1287 15.5082 20.6509 16.7669 20.6509 18.2426ZM18.417 18.2371C18.417 19.0998 18.1145 19.8349 17.5042 20.4452C16.8965 21.0529 16.16 21.3581 15.2988 21.3581C14.4429 21.3581 13.7078 21.0529 13.0988 20.4452C12.4898 19.8349 12.186 19.0998 12.186 18.2371C12.186 17.3813 12.4898 16.6461 13.0988 16.0385C13.7091 15.4309 14.4429 15.1257 15.2988 15.1257C17.0294 15.1284 18.417 16.5037 18.417 18.2371ZM18.0236 15.5231C17.2736 14.773 16.3648 14.4001 15.2988 14.4001C14.2354 14.4001 13.3294 14.773 12.5847 15.5231C11.8347 16.2732 11.4576 17.1792 11.4576 18.2371C11.4576 19.2991 11.8347 20.2038 12.5847 20.9579C13.3307 21.7094 14.2354 22.0864 15.2988 22.0864C16.3635 22.0864 17.2722 21.7094 18.0236 20.9579C18.771 20.2052 19.1467 19.2991 19.1467 18.2371C19.1467 17.1778 18.7723 16.2732 18.0236 15.5231Z" fill="white"/>
  </g>
  <defs>
  <clipPath id="clip0_953_127">
  <rect width="16.6667" height="11.0908" fill="white" transform="translate(6.33337 12.6667)"/>
  </clipPath>
  </defs>
</svg>