<svg width="30" height="30" viewBox="0 0 30 30" fill="none" xmlns="http://www.w3.org/2000/svg">
  <path d="M23.2423 8.75C23.2423 7.375 22.1414 6.25 20.7958 6.25H17.1259V8.75H20.7958V12.0625L16.5387 17.5H12.2328V11.25H7.33966C4.63621 11.25 2.44653 13.4875 2.44653 16.25V20H4.8931C4.8931 22.075 6.5323 23.75 8.56294 23.75C10.5936 23.75 12.2328 22.075 12.2328 20H17.7131L23.2423 12.9375V8.75ZM4.8931 17.5V16.25C4.8931 14.875 5.99405 13.75 7.33966 13.75H9.78623V17.5H4.8931ZM8.56294 21.25C7.89014 21.25 7.33966 20.6875 7.33966 20H9.78623C9.78623 20.6875 9.23575 21.25 8.56294 21.25Z" fill="white"/>
  <path d="M6.11646 7.5H12.2329V10H6.11646V7.5ZM23.2424 16.25C21.2118 16.25 19.5726 17.925 19.5726 20C19.5726 22.075 21.2118 23.75 23.2424 23.75C25.2731 23.75 26.9123 22.075 26.9123 20C26.9123 17.925 25.2731 16.25 23.2424 16.25ZM23.2424 21.25C22.5696 21.25 22.0191 20.6875 22.0191 20C22.0191 19.3125 22.5696 18.75 23.2424 18.75C23.9152 18.75 24.4657 19.3125 24.4657 20C24.4657 20.6875 23.9152 21.25 23.2424 21.25Z" fill="white"/>
</svg>