<svg width="24" height="26" viewBox="0 0 24 26" fill="none" xmlns="http://www.w3.org/2000/svg">
<path d="M3.25 25.5H20.75C21.413 25.5 22.0489 25.2366 22.5178 24.7678C22.9866 24.2989 23.25 23.663 23.25 23V9.25C23.25 8.91848 23.1183 8.60054 22.8839 8.36612C22.6495 8.1317 22.3315 8 22 8H18.25V7.02875C18.25 3.7675 15.8713 0.847503 12.625 0.531253C11.7561 0.444894 10.8787 0.54138 10.0494 0.814504C9.21998 1.08763 8.45697 1.53134 7.8094 2.1171C7.16183 2.70285 6.64405 3.41768 6.28936 4.21559C5.93468 5.0135 5.75095 5.87682 5.75 6.75V8H2C1.66848 8 1.35054 8.1317 1.11612 8.36612C0.881696 8.60054 0.75 8.91848 0.75 9.25V23C0.75 23.663 1.01339 24.2989 1.48223 24.7678C1.95107 25.2366 2.58696 25.5 3.25 25.5ZM18.25 10.5V13H15.75V10.5H18.25ZM8.25 6.75C8.25 4.6825 9.9325 3 12 3C14.0675 3 15.75 4.6825 15.75 6.75V8H8.25V6.75ZM5.75 10.5H8.25V13H5.75V10.5Z" fill="#FFAD00"/>
</svg>
