<svg width="70" height="70" viewBox="0 0 70 70" fill="none" xmlns="http://www.w3.org/2000/svg">
<path d="M35 5.83334C18.9 5.83334 5.83331 18.9 5.83331 35C5.83331 51.1 18.9 64.1667 35 64.1667C51.1 64.1667 64.1666 51.1 64.1666 35C64.1666 18.9 51.1 5.83334 35 5.83334ZM35 14.5833C39.8416 14.5833 43.75 18.4917 43.75 23.3333C43.75 28.175 39.8416 32.0833 35 32.0833C30.1583 32.0833 26.25 28.175 26.25 23.3333C26.25 18.4917 30.1583 14.5833 35 14.5833ZM35 56C31.5346 56 28.123 55.1424 25.0695 53.5037C22.0161 51.865 19.4156 49.4962 17.5 46.6083C17.5875 40.8042 29.1666 37.625 35 37.625C40.8041 37.625 52.4125 40.8042 52.5 46.6083C50.5844 49.4962 47.9839 51.865 44.9304 53.5037C41.8769 55.1424 38.4654 56 35 56Z" fill="#FFAD00"/>
</svg>
