<svg width="159" height="135" viewBox="0 0 159 135" fill="none" xmlns="http://www.w3.org/2000/svg">
<g clip-path="url(#clip0_1017_984)">
<path fill-rule="evenodd" clip-rule="evenodd" d="M98.8287 68.9788C98.8287 81.2113 126.759 79.7788 128.757 79.7788C130.756 79.7788 158.682 81.77 158.682 68.9788H98.8287Z" fill="#FFAD00"/>
<path fill-rule="evenodd" clip-rule="evenodd" d="M98.75 61.25H158.566V64.8163H98.75V61.25Z" fill="#FFAD00"/>
<path fill-rule="evenodd" clip-rule="evenodd" d="M99.9424 57.4663C100.182 57.466 100.416 57.3942 100.614 57.2601L106.25 52.7901L113.135 57.2151C113.33 57.3468 113.561 57.4166 113.796 57.4152C114.032 57.4139 114.261 57.3415 114.455 57.2076L121.31 52.7863L128.004 57.1626C128.196 57.2944 128.425 57.365 128.658 57.365C128.892 57.365 129.12 57.2944 129.312 57.1626L136.186 52.7826L142.966 57.1626C143.367 57.4326 143.881 57.4251 144.282 57.1551L151.284 52.8351L156.792 57.2676C156.924 57.3584 157.072 57.4214 157.229 57.4529C157.385 57.4844 157.547 57.4836 157.703 57.4506C157.859 57.4176 158.007 57.3531 158.137 57.261C158.268 57.1689 158.378 57.0512 158.461 56.9151C158.64 56.6382 158.705 56.3026 158.642 55.9789C158.58 55.6551 158.394 55.3684 158.124 55.1788L151.955 50.2926C151.76 50.158 151.529 50.0857 151.292 50.085C151.055 50.0843 150.823 50.1554 150.627 50.2888L143.611 54.6201L136.835 50.2401C136.641 50.1111 136.413 50.0427 136.18 50.0434C135.947 50.044 135.72 50.1138 135.526 50.2438L128.645 54.6201L121.951 50.2401C121.757 50.1081 121.527 50.0382 121.292 50.0396C121.057 50.0409 120.828 50.1134 120.635 50.2476L113.784 54.6651L106.899 50.2438C106.704 50.1105 106.474 50.0395 106.238 50.0402C106.002 50.0408 105.772 50.1132 105.579 50.2476L99.2787 55.1713C99.0098 55.3608 98.8246 55.6468 98.7617 55.9697C98.6988 56.2926 98.7631 56.6272 98.9412 56.9038C99.1737 57.2713 99.5562 57.4663 99.9424 57.4663Z" fill="#FFAD00"/>
<path fill-rule="evenodd" clip-rule="evenodd" d="M157.989 38.5926C157.989 38.5513 158.004 38.5138 157.996 38.4801C155.765 22.4826 136.303 20.2476 128.743 20.2476C121.183 20.2476 102.054 22.4863 99.4926 38.4801L99.4963 38.5926H157.989ZM147.343 31.0926H151.411V35.0751H147.343V31.0926V31.0926ZM106.093 31.0926H110.116V35.0601H106.093V31.0926ZM117.343 27.3426H121.31V31.2501H117.343V27.3426V27.3426ZM136.093 27.3426H140V31.3101H136.093V27.3426V27.3426ZM124.843 31.0926H128.825V35.0751H124.843V31.0926ZM128.671 23.6526H132.5V27.6013H128.671V23.6526Z" fill="#FFAD00"/>
<path fill-rule="evenodd" clip-rule="evenodd" d="M98.75 42.5H158.465V45.8825H98.75V42.5Z" fill="#FFAD00"/>
</g>
<path d="M77.625 110L73.45 115.567C72.8666 116.344 72.5736 117.301 72.6215 118.272C72.6695 119.243 73.0554 120.167 73.7125 120.883L81.5958 129.483C82.3833 130.344 83.4958 130.833 84.6646 130.833H94.2916C99.2916 130.833 102.625 126.667 102.625 122.5V104.644" fill="white"/>
<path d="M77.625 110L73.45 115.567C72.8666 116.344 72.5736 117.301 72.6215 118.272C72.6695 119.243 73.0554 120.167 73.7125 120.883L81.5958 129.483C82.3833 130.344 83.4958 130.833 84.6646 130.833H94.2916C99.2916 130.833 102.625 126.667 102.625 122.5V104.644" stroke="#FFAD00" stroke-width="2.5" stroke-linecap="round" stroke-linejoin="round"/>
<path d="M96.375 105.833V104.644C96.375 99.8814 102.625 99.8814 102.625 104.644" fill="white"/>
<path d="M96.375 105.833V104.644C96.375 99.8814 102.625 99.8814 102.625 104.644" stroke="#FFAD00" stroke-width="2.5" stroke-linecap="round" stroke-linejoin="round"/>
<path d="M90.125 105.833V102.263C90.125 97.5 96.375 97.5 96.375 102.263V105.833" fill="white"/>
<path d="M90.125 105.833V102.263C90.125 97.5 96.375 97.5 96.375 102.263V105.833" stroke="#FFAD00" stroke-width="2.5" stroke-linecap="round" stroke-linejoin="round"/>
<path d="M83.875 105.833V100.625C83.875 95.8626 90.125 95.8626 90.125 100.625V105.833" fill="white"/>
<path d="M83.875 105.833V100.625C83.875 95.8626 90.125 95.8626 90.125 100.625V105.833" stroke="#FFAD00" stroke-width="2.5" stroke-linecap="round" stroke-linejoin="round"/>
<path d="M83.875 105.833V100.625V92.2897C83.8744 91.4612 83.545 90.6669 82.959 90.0813C82.373 89.4957 81.5784 89.1667 80.75 89.1667C79.9212 89.1667 79.1263 89.496 78.5403 90.082C77.9542 90.6681 77.625 91.4629 77.625 92.2917V116.25" fill="white"/>
<path d="M83.875 105.833V100.625V92.2897C83.8744 91.4612 83.545 90.6669 82.959 90.0813C82.373 89.4957 81.5784 89.1667 80.75 89.1667C79.9212 89.1667 79.1263 89.496 78.5403 90.082C77.9542 90.6681 77.625 91.4629 77.625 92.2917V116.25" stroke="#FFAD00" stroke-width="2.5" stroke-linecap="round" stroke-linejoin="round"/>
<path d="M78.75 40.6054V73.1249C78.75 74.6168 78.1574 76.0475 77.1025 77.1024C76.0476 78.1573 74.6168 78.7499 73.125 78.7499H16.875C15.3832 78.7499 13.9524 78.1573 12.8975 77.1024C11.8426 76.0475 11.25 74.6168 11.25 73.1249V40.6054C11.2502 39.8249 11.4129 39.053 11.7276 38.3388C12.0424 37.6247 12.5023 36.9838 13.0781 36.457L41.2031 10.8984C42.2401 9.9497 43.5946 9.42358 45 9.42358C46.4054 9.42358 47.7599 9.9497 48.7969 10.8984L76.9219 36.457C77.4977 36.9838 77.9576 37.6247 78.2724 38.3388C78.5871 39.053 78.7498 39.8249 78.75 40.6054Z" fill="#FFAD00"/>
<g clip-path="url(#clip1_1017_984)">
<path fill-rule="evenodd" clip-rule="evenodd" d="M26.3242 51.7695C27.7321 50.8092 28.4401 49.5519 28.318 46.6751V39.2777C28.3058 38.2441 26.43 38.118 26.3364 39.2777L26.2632 45.2795C26.2591 46.4025 24.5705 46.4391 24.5745 45.2795L24.6478 39.0742C24.6274 37.9634 22.8371 37.8535 22.8127 39.0742C22.8127 40.7954 22.7394 43.5583 22.7394 45.2795C22.8289 46.3659 21.2624 46.5083 21.3031 45.2795L21.3804 39.1108C21.3397 38.2726 20.4201 37.9756 19.7935 38.3662C19.1261 38.7935 19.2604 39.6479 19.2319 40.3682L19 47.4482C19.0366 49.5072 19.5778 51.1795 21.1891 51.8916C21.4333 51.9974 21.7751 52.0828 22.1698 52.1439L21.6123 69.4046C21.5798 70.43 22.418 71.2642 23.3986 71.2642H23.6224C24.7292 71.2642 25.661 70.3201 25.6325 69.1686L25.1442 52.1357C25.6569 52.0544 26.0841 51.9364 26.3242 51.7695ZM65.1263 56.1722H65.7285C65.7285 60.5789 65.7122 65.6693 65.5698 70.0557C65.5088 71.7362 68.6582 71.6711 68.6012 69.8807L68.4832 56.1722H69V38C62.4977 38.9969 64.7397 51.5864 65.1263 56.1722ZM61.9525 54.7277C61.9525 59.167 60.39 62.9552 57.265 66.0843C54.1318 69.2174 50.3477 70.784 45.9084 70.784C41.4894 70.784 37.7012 69.2215 34.564 66.0843C31.4308 62.9552 29.8561 59.167 29.8561 54.7277C29.8561 50.3006 31.4268 46.5286 34.564 43.3914C37.7093 40.2583 41.4894 38.6836 45.9084 38.6836C50.3477 38.6836 54.1318 40.2542 57.265 43.3914C60.3859 46.5246 61.9525 50.3006 61.9525 54.7277ZM55.2508 54.7114C55.2508 57.2993 54.3434 59.5047 52.5124 61.3358C50.6895 63.1587 48.48 64.0742 45.8962 64.0742C43.3286 64.0742 41.1232 63.1587 39.2962 61.3358C37.4692 59.5047 36.5578 57.2993 36.5578 54.7114C36.5578 52.1439 37.4692 49.9385 39.2962 48.1156C41.1273 46.2926 43.3286 45.3771 45.8962 45.3771C51.0882 45.3853 55.2508 49.5112 55.2508 54.7114ZM54.0708 46.5693C51.8206 44.3192 49.0944 43.2002 45.8962 43.2002C42.7061 43.2002 39.988 44.3192 37.7541 46.5693C35.5039 48.8195 34.3727 51.5376 34.3727 54.7114C34.3727 57.8975 35.5039 60.6115 37.7541 62.8739C39.992 65.1281 42.7061 66.2593 45.8962 66.2593C49.0903 66.2593 51.8166 65.1281 54.0708 62.8739C56.3128 60.6156 57.4399 57.8975 57.4399 54.7114C57.4399 51.5335 56.3169 48.8195 54.0708 46.5693Z" fill="white"/>
</g>
<defs>
<clipPath id="clip0_1017_984">
<rect width="63.75" height="60" fill="white" transform="translate(95 20)"/>
</clipPath>
<clipPath id="clip1_1017_984">
<rect width="50" height="33.2723" fill="white" transform="translate(19 38)"/>
</clipPath>
</defs>
</svg>
  