<svg width="224" height="96" viewBox="0 0 224 96" fill="none" xmlns="http://www.w3.org/2000/svg">
<rect y="60" width="224" height="36" rx="10" fill="#FEBE10"/>
<rect x="6" y="66" width="171" height="24" fill="white"/>
<path d="M111 5.625C102.798 5.63468 94.9344 8.89726 89.1346 14.6971C83.3348 20.4969 80.0722 28.3603 80.0625 36.5625C80.0527 43.2653 82.2422 49.7863 86.295 55.125C86.295 55.125 87.1388 56.2359 87.2766 56.3963L111 84.375L134.735 56.3822C134.858 56.2331 135.705 55.125 135.705 55.125L135.708 55.1166C139.759 49.7802 141.947 43.2622 141.938 36.5625C141.928 28.3603 138.665 20.4969 132.865 14.6971C127.066 8.89726 119.202 5.63468 111 5.625V5.625ZM111 47.8125C108.775 47.8125 106.6 47.1527 104.75 45.9165C102.9 44.6804 101.458 42.9234 100.606 40.8677C99.7549 38.812 99.5321 36.55 99.9662 34.3677C100.4 32.1854 101.472 30.1809 103.045 28.6075C104.618 27.0342 106.623 25.9627 108.805 25.5287C110.988 25.0946 113.25 25.3174 115.305 26.1689C117.361 27.0203 119.118 28.4623 120.354 30.3123C121.59 32.1624 122.25 34.3375 122.25 36.5625C122.246 39.545 121.06 42.4044 118.951 44.5133C116.842 46.6223 113.983 47.8088 111 47.8125V47.8125Z" fill="#FFAD00"/>
</svg>
