<svg width="23" height="23" viewBox="0 0 23 23" fill="none" xmlns="http://www.w3.org/2000/svg">
<path d="M11.5 0.5625C5.45996 0.5625 0.5625 5.45996 0.5625 11.5C0.5625 17.54 5.45996 22.4375 11.5 22.4375C17.54 22.4375 22.4375 17.54 22.4375 11.5C22.4375 5.45996 17.54 0.5625 11.5 0.5625ZM15.8091 14.8618L15.1108 15.814C15.0957 15.8347 15.0765 15.8522 15.0545 15.8655C15.0326 15.8789 15.0082 15.8877 14.9827 15.8916C14.9573 15.8954 14.9314 15.8942 14.9065 15.888C14.8815 15.8818 14.8581 15.8708 14.8374 15.8555L10.7993 12.9111C10.7742 12.8931 10.7537 12.8692 10.7397 12.8416C10.7257 12.814 10.7185 12.7834 10.7188 12.7524V6.03125C10.7188 5.92383 10.8066 5.83594 10.9141 5.83594H12.0884C12.1958 5.83594 12.2837 5.92383 12.2837 6.03125V12.0737L15.7651 14.5908C15.853 14.6519 15.8726 14.7739 15.8091 14.8618Z" fill="#FFAD00"/>
</svg>
