<svg width="20" height="26" viewBox="0 0 20 26" fill="none" xmlns="http://www.w3.org/2000/svg">
<path d="M1.25 25.5C0.918479 25.5 0.600537 25.3683 0.366117 25.1339C0.131696 24.8995 0 24.5815 0 24.25V1.75C0 1.41848 0.131696 1.10054 0.366117 0.866116C0.600537 0.631696 0.918479 0.5 1.25 0.5H18.75C19.0815 0.5 19.3995 0.631696 19.6339 0.866116C19.8683 1.10054 20 1.41848 20 1.75V24.25C20 24.5815 19.8683 24.8995 19.6339 25.1339C19.3995 25.3683 19.0815 25.5 18.75 25.5H1.25ZM13.75 18L20 13L13.75 8V11.75H6.25V14.25H13.75V18Z" fill="#FFAD00"/>
</svg>
