<svg width="38" height="36" viewBox="0 0 38 36" fill="none" xmlns="http://www.w3.org/2000/svg">
<g clip-path="url(#clip0_802_199)">
<path d="M26.9043 2.61857L26.8796 2.60015C25.3581 3.10975 24.7396 1.59018 24.1644 0.96086C24.8509 0.988488 26.0539 0.457406 27.1486 1.97084C27.1779 1.97798 27.2061 1.98936 27.2321 2.0046L27.4919 2.14889C27.1826 1.40906 27.3805 0.595549 27.4176 0C27.8011 0.515733 29.3968 1.91865 28.6237 2.86109C28.8371 3.00537 29.0474 3.16807 29.2422 3.31236C28.9886 2.42517 29.3288 1.43361 29.4308 1.04375C29.7648 1.50422 31.0977 3.23561 30.1545 4.05526C30.4637 4.3254 30.773 4.60476 31.0544 4.89946C30.9059 4.01842 31.3883 3.22026 31.5925 2.72909C31.7966 3.13738 33.0273 5.18496 31.9017 5.83576C32.1079 6.06907 32.2996 6.30852 32.4769 6.55411C32.4491 5.66078 33.0459 4.94551 33.3613 4.37759C33.4881 5.02533 34.3571 7.04528 33.1789 7.55794C33.2747 7.7053 33.3675 7.86493 33.4603 8.00921C33.5531 8.15349 33.6118 8.26401 33.6829 8.39294C33.7633 7.51804 34.4189 6.87951 34.7869 6.35457C34.8457 7.01765 35.5044 9.13277 34.255 9.50422C34.4159 9.85111 34.5643 10.2072 34.7035 10.5695C34.9416 9.73753 35.6776 9.21259 36.1198 8.75518C36.0703 9.42134 36.3888 11.604 35.1209 11.825C35.2075 12.132 35.2848 12.439 35.356 12.7306C35.6838 11.9048 36.4971 11.4597 37.0011 11.0453C36.8744 11.7176 36.9362 13.9954 35.591 14.0107C35.6343 14.2993 35.6683 14.5879 35.693 14.8795V15.0484C36.1693 14.2594 37.0785 13.9463 37.666 13.6147C37.4217 14.2655 37.0846 16.5587 35.7425 16.3776C35.7425 16.6846 35.7425 16.9916 35.7116 17.2985C36.3115 16.5403 37.3042 16.3776 37.9598 16.1443C37.6042 16.7583 36.8867 18.9593 35.5879 18.5418C35.5353 18.9225 35.4704 19.297 35.39 19.6685C36.1136 19.0545 37.1063 19.0545 37.7897 18.9348C37.3413 19.4597 36.262 21.4735 35.0745 20.9056C34.9818 21.2126 34.8766 21.5196 34.7653 21.8266C35.5662 21.2678 36.5713 21.4121 37.2733 21.3784C36.9146 21.8634 35.4178 23.7452 34.2953 22.9685C34.1437 23.297 33.986 23.6224 33.8128 23.9417C34.7158 23.4658 35.7456 23.7145 36.4538 23.779C35.9219 24.2333 34.3231 25.977 33.1974 24.9854C33.0088 25.2924 32.814 25.5625 32.6099 25.8419C33.5376 25.495 34.4653 25.8419 35.1395 25.9831C34.5519 26.3638 32.8573 28.0399 31.8306 26.8243C31.5553 27.1312 31.2677 27.4566 30.9678 27.7452C32.1769 27.3891 33.1108 27.9233 33.5994 28.1443C32.9562 28.4758 30.9399 29.9555 30.1359 28.5249C29.8576 28.7675 29.57 29.0008 29.2762 29.2249C30.3647 29.0898 31.2708 29.6485 31.9605 29.9678C31.2306 30.198 28.9701 31.4229 28.2217 29.9678C27.9805 30.1243 27.7331 30.2748 27.4826 30.4221C28.4876 30.4927 29.1711 31.254 29.7957 31.6285C29.2174 31.8342 26.9074 32.614 26.2487 31.0637C25.9611 31.1988 25.6735 31.3246 25.3766 31.4444C26.3446 31.6408 26.9229 32.4543 27.5042 32.8872C26.9043 33.0315 24.5015 33.5564 24.0314 31.9202C22.6924 32.3315 21.2791 32.5342 19.8813 33.1665C20.6219 33.5862 21.3172 34.0799 21.9564 34.6401C23.3356 35.7084 22.1914 36.789 20.9946 35.1988C20.4248 34.5851 19.7648 34.0604 19.0371 33.6424C18.3433 34.0475 17.7112 34.5489 17.16 35.1312C15.923 36.7183 14.7912 35.6255 16.1921 34.5602C16.793 34.0401 17.4423 33.5776 18.131 33.1788C16.7394 32.5649 15.3045 32.3438 13.9346 31.911C13.48 33.5779 11.0586 33.0468 10.4556 32.9025C11.04 32.4605 11.64 31.6224 12.6419 31.4474C12.3327 31.3216 12.0234 31.1865 11.7142 31.0453C11.0741 32.6385 8.73307 31.8496 8.15169 31.6592C8.79183 31.2755 9.49691 30.4835 10.5483 30.4313C10.2762 30.2748 10.0072 30.1243 9.7474 29.9401C9.02067 31.4751 6.72298 30.2195 5.98698 29.9862C6.69824 29.6577 7.64144 29.0652 8.77018 29.2586C8.46094 29.013 8.13623 28.7582 7.84245 28.4912C7.05697 30.0077 5.00358 28.4912 4.35107 28.1627C4.85514 27.9325 5.83545 27.3738 7.10335 27.8005C6.93945 27.6378 6.77865 27.472 6.62093 27.3001C6.46322 27.1282 6.31169 26.9563 6.16016 26.7813C5.13965 28.089 3.40788 26.3761 2.81104 25.9893C3.51921 25.8266 4.49642 25.4705 5.45508 25.8941C5.22933 25.5871 5.00977 25.2801 4.80566 24.9455C3.67692 26.0384 2.02246 24.2456 1.49674 23.7851C2.23275 23.7176 3.32438 23.4505 4.25521 24.0123C4.06348 23.6592 3.88411 23.297 3.71712 22.9286C2.57601 23.8189 1.04216 21.8757 0.677246 21.3937C1.41325 21.4275 2.48014 21.2678 3.29964 21.9279C3.17285 21.581 3.05534 21.2279 2.9502 20.8688C1.74105 21.5503 0.61849 19.4658 0.170085 18.9286C0.887533 19.0545 1.94824 19.0299 2.67497 19.7606C2.58426 19.3512 2.51004 18.9337 2.45231 18.5081C1.104 19.033 0.361816 16.7552 0 16.1381C0.689616 16.3868 1.75342 16.5495 2.33789 17.4183C2.31315 17.0591 2.30078 16.7061 2.29769 16.35C0.887533 16.6569 0.544271 14.2717 0.293783 13.6055C0.912272 13.9555 1.8833 14.2809 2.3348 15.1619C2.36263 14.7721 2.40592 14.3822 2.4585 13.9985C1.03597 14.0721 1.104 11.7206 0.974121 11.0361C1.50602 11.472 2.375 11.9417 2.66878 12.8503C2.743 12.5065 2.82959 12.1627 2.92855 11.825C1.57406 11.6899 1.90495 9.43362 1.85547 8.75518C2.31934 9.23715 3.10791 9.78972 3.30273 10.6922C3.45117 10.2962 3.61198 9.90637 3.79134 9.52264C2.44613 9.21566 3.12956 7.02993 3.17285 6.35457C3.55941 6.90407 4.26139 7.5825 4.28613 8.5188L4.30778 8.48503C4.47683 8.17805 4.6562 7.87721 4.84587 7.5825C3.57487 7.11589 4.47477 5.03761 4.60156 4.37759C4.94792 4.97007 5.56641 5.71911 5.49219 6.66769C5.69629 6.3914 5.90658 6.12433 6.11068 5.86339C4.90772 5.24942 6.17253 3.14352 6.37972 2.72909C6.59001 3.23868 7.10026 4.07675 6.89925 4.99463C7.2085 4.68764 7.51774 4.38066 7.85482 4.07368C6.8405 3.26938 8.20427 1.49808 8.54134 1.03147C8.64649 1.43054 9.00212 2.46508 8.70833 3.37375C8.93099 3.20184 9.15674 3.03914 9.38867 2.87951C8.56917 1.94935 10.2051 0.521873 10.5824 0C10.6195 0.613968 10.8298 1.44589 10.4865 2.20414C10.6535 2.10591 10.8267 2.01074 10.9967 1.91558C12.076 0.500384 13.248 1.00998 13.9222 0.994628C13.3532 1.63315 12.7223 3.17114 11.1885 2.62471C10.937 2.76388 10.6896 2.90816 10.4463 3.05756C11.5503 3.17728 12.1131 4.12586 12.611 4.67536C11.9709 4.58327 9.88037 4.73062 9.65772 3.5825C9.4165 3.75441 9.18148 3.92939 8.95264 4.11051C10.0566 4.11051 10.7122 5.00077 11.2658 5.49194C10.6226 5.47045 8.57536 5.82655 8.21663 4.73062C7.84348 5.05602 7.48476 5.40599 7.14046 5.78051C8.25993 5.61781 9.03923 6.4221 9.66081 6.84267C9.01758 6.901 7.02913 7.52725 6.53434 6.47736C6.31581 6.74341 6.10965 7.01663 5.91585 7.29701C6.99202 7.03914 7.84554 7.74213 8.50114 8.08903C7.88265 8.21796 6.00863 9.03761 5.37777 8.08903C5.22933 8.32643 5.08708 8.56587 4.95101 8.80737L4.79329 9.11435C5.79216 8.62011 6.78174 9.11435 7.50228 9.3231C7.125 9.65157 5.22005 10.858 4.39128 9.93707C4.19645 10.3607 4.02328 10.7966 3.86865 11.2387C4.79639 10.6677 5.82926 11.0422 6.56217 11.1497C6.00863 11.4812 4.49023 12.9117 3.56869 12.1995C3.46973 12.5587 3.38314 12.921 3.30892 13.2893C4.15934 12.6262 5.23242 12.8933 5.9777 12.8933C5.46745 13.2893 4.12223 14.8734 3.12956 14.3239C3.07699 14.726 3.03988 15.1343 3.02132 15.5518C3.80062 14.6892 4.96029 14.7936 5.73649 14.7045C5.26953 15.1896 4.12842 17.0407 3.00586 16.5464C3.00586 16.8943 3.02441 17.2412 3.06152 17.5871C3.71712 16.6477 4.87061 16.5925 5.62516 16.4021C5.22933 16.9424 4.35107 18.9194 3.18213 18.6094C3.25016 19.0514 3.33366 19.4873 3.4388 19.9171C3.93978 18.8273 5.118 18.6155 5.854 18.3177C5.54476 18.9163 4.92627 21.0376 3.68929 20.8258C3.79753 21.1819 3.92122 21.5318 4.0542 21.8726C4.38818 20.7736 5.47673 20.3745 6.13542 19.9662C5.92204 20.6048 5.6901 22.7843 4.45313 22.8058C4.61702 23.1619 4.79948 23.5119 4.99121 23.8526C5.2015 22.6953 6.2653 22.1919 6.89307 21.7038C6.81576 22.3699 6.91471 24.6232 5.51383 24.703C5.71484 25.01 5.92513 25.317 6.14779 25.6055C6.18799 24.4114 7.18376 23.7636 7.74658 23.2049C7.74658 23.8803 8.16406 26.1182 6.76318 26.3638C6.88997 26.5111 7.01986 26.6708 7.15283 26.7997C7.34869 27.0044 7.5497 27.209 7.75586 27.4137C7.60433 26.241 8.47331 25.4428 8.93099 24.8043C9.05778 25.4674 9.83399 27.6101 8.48877 28.0829C8.79802 28.3408 9.10726 28.5894 9.4165 28.8258C9.0485 27.6562 9.89583 26.7751 10.2051 26.0353C10.4834 26.5449 11.541 28.5587 10.2298 29.4121C10.604 29.6546 10.9906 29.8787 11.3864 30.0906C10.7865 28.8626 11.5534 27.8127 11.8039 26.987C12.141 27.4873 13.4336 29.4428 12.1904 30.4896C12.5821 30.6718 12.9811 30.8376 13.3872 30.987C12.6296 29.9094 13.1584 28.7705 13.2419 27.9171C13.6717 28.3408 15.3262 30.0322 14.3026 31.2939C16.0096 31.8097 17.2713 31.9079 19.0093 32.7153C20.6668 31.9294 22.0337 31.7943 23.6974 31.3124C22.6398 30.0629 24.3159 28.3561 24.7396 27.9355C24.8231 28.7889 25.3581 29.9463 24.5633 31.0361C24.9932 30.8826 25.4137 30.7107 25.8219 30.5234C24.5262 29.5012 25.8219 27.4965 26.1776 26.9931C26.4342 27.8342 27.2228 28.8995 26.5641 30.1612C26.9847 29.9401 27.3991 29.7038 27.8011 29.4459C26.4219 28.6078 27.4919 26.5572 27.7826 26.0414C28.1196 26.7997 28.9886 27.7053 28.5433 28.9455C28.8958 28.6876 29.2422 28.4175 29.5731 28.1351C28.1413 27.7022 28.9391 25.5042 29.069 24.8319C29.5391 25.4889 30.4421 26.3116 30.2318 27.5395C30.6091 27.1773 30.9709 26.7966 31.311 26.4006C29.8205 26.2195 30.2411 23.9171 30.2534 23.2295C30.8317 23.8066 31.8708 24.4758 31.8522 25.7345C32.1027 25.4091 32.3408 25.0744 32.5666 24.7276C31.0822 24.7276 31.1842 22.4068 31.1069 21.7283C31.7533 22.2195 32.8665 22.7414 33.0273 23.9754C33.2335 23.5989 33.4397 23.2121 33.6458 22.815C32.3346 22.8918 32.0996 20.6324 31.88 19.9785C32.5635 20.4021 33.7077 20.8166 33.9953 22.0077C34.1499 21.6209 34.3045 21.2218 34.4159 20.8196C33.1077 21.1512 32.4707 18.9409 32.1615 18.33C32.9253 18.637 34.1623 18.855 34.6354 20.0522C34.756 19.5733 34.855 19.0883 34.9292 18.594C33.7077 19.033 32.78 16.9701 32.3748 16.4144C33.1572 16.614 34.3726 16.6631 35.0127 17.713C35.0498 17.32 35.0684 16.921 35.0745 16.5219C33.9272 17.1358 32.7397 15.2018 32.2635 14.7045C33.0675 14.7966 34.286 14.683 35.0467 15.65C35.0467 15.4106 35.0313 15.1711 35.0003 14.9317C34.9787 14.7137 34.957 14.4988 34.9261 14.284C33.9118 14.9563 32.5295 13.3047 32.0068 12.8995C32.7769 12.8749 33.9025 12.5925 34.79 13.3691C34.7127 12.9547 34.6169 12.5495 34.5055 12.1412C33.5778 12.9731 32.013 11.4843 31.4471 11.1435C32.2078 11.0299 33.3026 10.6309 34.2303 11.3001C34.064 10.813 33.8731 10.3345 33.6582 9.86646C32.8604 10.9163 30.875 9.65157 30.4946 9.31389C31.2399 9.10821 32.279 8.57099 33.3149 9.16654C33.1727 8.89332 33.0057 8.62318 32.8634 8.3561C32.7954 8.24559 32.7305 8.13814 32.6593 8.0307C32.0718 9.06523 30.1328 8.21182 29.4958 8.07982C30.173 7.72371 31.042 6.98695 32.18 7.31543C31.9574 7.00844 31.7223 6.70146 31.478 6.39447C31.0327 7.53031 28.9793 6.88258 28.3237 6.82118C28.9608 6.38833 29.7648 5.55027 30.9338 5.77437C30.5698 5.37875 30.1858 5.0017 29.7834 4.64467C29.4741 5.80507 27.3713 5.43362 26.7188 5.45817C27.2847 4.95779 27.9557 4.04605 29.103 4.07675C28.8525 3.88028 28.599 3.68995 28.3361 3.50576C28.1567 4.69992 26.0199 4.5495 25.3735 4.6416C25.8807 4.08289 26.4528 3.10668 27.597 3.02072L27.4609 2.93477C27.263 2.81504 27.0682 2.70146 26.8734 2.59708L26.9043 2.61857Z" fill="white"/>
</g>
<g clip-path="url(#clip1_802_199)">
<path d="M13.8461 5C13.8461 5 13.0385 10.6538 13.0385 11.4615C13.0385 12.2692 14.8558 13.8846 14.8558 13.8846L14.6538 24.6625C14.6538 25.5542 15.3775 26 16.2692 26C17.1609 26 17.8846 25.5542 17.8846 24.6625L17.6827 13.8846C17.6827 13.8846 19.5 12.2353 19.5 11.4615C19.5 10.6878 18.6923 5 18.6923 5H17.8846V10.25C17.8846 10.3571 17.8421 10.4598 17.7663 10.5356C17.6906 10.6113 17.5879 10.6538 17.4808 10.6538C17.3737 10.6538 17.2709 10.6113 17.1952 10.5356C17.1195 10.4598 17.0769 10.3571 17.0769 10.25C17.0769 10.1749 16.7991 5 16.7991 5H15.7394C15.7394 5 15.4615 10.1749 15.4615 10.25C15.4615 10.3571 15.419 10.4598 15.3432 10.5356C15.2675 10.6113 15.1648 10.6538 15.0577 10.6538C14.9506 10.6538 14.8479 10.6113 14.7721 10.5356C14.6964 10.4598 14.6538 10.3571 14.6538 10.25V5H13.8461ZM22.5038 5.05088C22.0281 5.16477 21.9231 5.67442 21.9231 6.23577V24.6617C21.9231 25.5533 22.6468 25.9992 23.5385 25.9992C24.4301 25.9992 25.1288 25.5525 25.1288 24.6617C25.1288 20.5529 24.3211 18.3625 24.3211 16.3069C24.3211 15.3797 25.9615 14.1859 25.9615 9.87038C25.9615 7.23085 23.6225 5.05008 22.7308 5.05008C22.6468 5.05008 22.5716 5.03392 22.5038 5.05008V5.05088Z" fill="white"/>
</g>
<defs>
<clipPath id="clip0_802_199">
<rect width="38" height="36" fill="white"/>
</clipPath>
<clipPath id="clip1_802_199">
<rect width="21" height="21" fill="white" transform="translate(9 5)"/>
</clipPath>
</defs>
</svg>
