<svg width="30" height="30" viewBox="0 0 30 30" fill="none" xmlns="http://www.w3.org/2000/svg">
<path d="M28.7215 10.6289L26.1357 8.04317C25.9271 7.83736 25.649 7.71719 25.3561 7.70634C25.0633 7.6955 24.777 7.79477 24.5537 7.98458C24.209 8.27798 23.7667 8.43117 23.3143 8.41381C22.862 8.39645 22.4327 8.20979 22.1115 7.89083C21.7927 7.56966 21.6062 7.14049 21.5888 6.6883C21.5715 6.23611 21.7245 5.79389 22.0178 5.44922C22.2076 5.22595 22.3069 4.93967 22.296 4.64682C22.2852 4.35397 22.165 4.07581 21.9592 3.86719L19.3711 1.27852C19.1524 1.06022 18.856 0.937622 18.547 0.937622C18.238 0.937622 17.9416 1.06022 17.7229 1.27852L13.6008 5.40001C13.3463 5.65541 13.1544 5.96626 13.04 6.30821C13.0178 6.37395 12.9807 6.43368 12.9316 6.48276C12.8825 6.53184 12.8228 6.56896 12.757 6.59122C12.4149 6.70554 12.1041 6.89769 11.8488 7.15255L1.27852 17.7229C1.06022 17.9416 0.937622 18.238 0.937622 18.547C0.937622 18.856 1.06022 19.1524 1.27852 19.3711L3.86719 21.9568C4.07581 22.1626 4.35397 22.2828 4.64682 22.2937C4.93967 22.3045 5.22595 22.2052 5.44922 22.0154C5.7931 21.7197 6.23605 21.5648 6.68931 21.5818C7.14257 21.5988 7.57266 21.7865 7.89339 22.1072C8.21412 22.4279 8.40179 22.858 8.41881 23.3113C8.43583 23.7645 8.28094 24.2075 7.98516 24.5514C7.79535 24.7746 7.69608 25.0609 7.70693 25.3538C7.71777 25.6466 7.83795 25.9248 8.04376 26.1334L10.6295 28.7191C10.8482 28.9374 11.1446 29.06 11.4536 29.06C11.7626 29.06 12.059 28.9374 12.2777 28.7191L22.8481 18.1488C23.1028 17.8937 23.2949 17.5831 23.4094 17.2412C23.4315 17.1753 23.4687 17.1153 23.5179 17.0661C23.5671 17.0169 23.627 16.9798 23.693 16.9576C24.0347 16.8433 24.3454 16.6513 24.6006 16.3969L28.7221 12.2748C28.9396 12.0561 29.0616 11.7602 29.0615 11.4517C29.0614 11.1433 28.9391 10.8475 28.7215 10.6289ZM15.3404 8.89161C15.2534 8.97869 15.15 9.04776 15.0363 9.09489C14.9225 9.14201 14.8006 9.16627 14.6774 9.16627C14.5543 9.16627 14.4324 9.14201 14.3186 9.09489C14.2049 9.04776 14.1015 8.97869 14.0145 8.89161L13.34 8.21719C13.1685 8.04049 13.0734 7.80339 13.0752 7.55713C13.0771 7.31087 13.1758 7.07523 13.35 6.90113C13.5241 6.72703 13.7598 6.62846 14.0061 6.62671C14.2523 6.62497 14.4894 6.72019 14.666 6.8918L15.3404 7.56563C15.4275 7.65269 15.4966 7.75605 15.5437 7.8698C15.5908 7.98356 15.6151 8.10549 15.6151 8.22862C15.6151 8.35175 15.5908 8.47368 15.5437 8.58743C15.4966 8.70119 15.4275 8.80455 15.3404 8.89161ZM17.9186 11.4697C17.7428 11.6454 17.5044 11.7441 17.2559 11.7441C17.0073 11.7441 16.769 11.6454 16.5932 11.4697L15.9486 10.8252C15.8616 10.7381 15.7925 10.6348 15.7454 10.521C15.6983 10.4073 15.674 10.2853 15.674 10.1622C15.674 10.0391 15.6983 9.91716 15.7454 9.80341C15.7925 9.68965 15.8616 9.58629 15.9486 9.49922C16.1245 9.32339 16.363 9.22461 16.6116 9.22461C16.7348 9.22461 16.8567 9.24886 16.9704 9.29598C17.0842 9.3431 17.1875 9.41216 17.2746 9.49922L17.9191 10.1438C18.0065 10.2308 18.0759 10.3342 18.1232 10.4481C18.1705 10.562 18.1949 10.6842 18.195 10.8075C18.195 10.9308 18.1708 11.053 18.1235 11.1669C18.0763 11.2809 18.007 11.3844 17.9197 11.4715L17.9186 11.4697ZM20.4967 14.0479C20.4096 14.1349 20.3063 14.204 20.1925 14.2511C20.0788 14.2983 19.9568 14.3225 19.8337 14.3225C19.7106 14.3225 19.5886 14.2983 19.4749 14.2511C19.3611 14.204 19.2578 14.1349 19.1707 14.0479L18.5262 13.4033C18.3546 13.2266 18.2595 12.9895 18.2614 12.7433C18.2632 12.497 18.3619 12.2614 18.5361 12.0873C18.7103 11.9132 18.9459 11.8146 19.1922 11.8128C19.4385 11.8111 19.6755 11.9063 19.8522 12.0779L20.4967 12.7225C20.5843 12.8094 20.6539 12.9127 20.7015 13.0266C20.7491 13.1405 20.7737 13.2626 20.774 13.386C20.7743 13.5094 20.7502 13.6317 20.7031 13.7458C20.656 13.8598 20.5869 13.9635 20.4996 14.0508L20.4967 14.0479ZM23.1 16.6576C23.0129 16.7447 22.9096 16.8138 22.7958 16.8609C22.6821 16.908 22.5601 16.9323 22.437 16.9323C22.3139 16.9323 22.192 16.908 22.0782 16.8609C21.9644 16.8138 21.8611 16.7447 21.774 16.6576L21.1037 15.9838C21.0148 15.897 20.944 15.7934 20.8955 15.679C20.847 15.5646 20.8217 15.4417 20.8211 15.3175C20.8206 15.1932 20.8447 15.0701 20.8921 14.9552C20.9395 14.8404 21.0093 14.7361 21.0973 14.6485C21.1854 14.5608 21.29 14.4916 21.4051 14.4447C21.5202 14.3978 21.6434 14.3743 21.7677 14.3755C21.8919 14.3767 22.0147 14.4026 22.1288 14.4517C22.243 14.5007 22.3463 14.572 22.4326 14.6613L23.1035 15.3346C23.1906 15.4217 23.2596 15.5251 23.3067 15.6388C23.3537 15.7526 23.3779 15.8746 23.3779 15.9977C23.3778 16.1208 23.3535 16.2427 23.3063 16.3565C23.2592 16.4702 23.1901 16.5735 23.1029 16.6606L23.1 16.6576Z" fill="#FFAD00"/>
</svg>
