<svg width="120" height="100" viewBox="0 0 120 100" fill="none" xmlns="http://www.w3.org/2000/svg">
<g clip-path="url(#clip0_802_541)">
<path d="M8.9282 70.4512V75.5184H2.42028V70.4512H0V83.1205H2.42028V77.6886H8.9282V83.1205H11.3459V70.4512H8.9282Z" fill="white"/>
<path d="M21.9414 72.3113C19.5419 72.3113 17.773 74.2313 17.773 76.7845C17.773 79.3376 19.5393 81.2577 21.9414 81.2577C24.3434 81.2577 26.0889 79.3585 26.0889 76.7845C26.0889 74.2105 24.3226 72.3113 21.9414 72.3113ZM21.9414 83.3706C17.9762 83.368 15.2042 80.6429 15.2042 76.7845C15.186 72.8766 17.9293 70.2192 21.9414 70.2192C25.9535 70.2192 28.6577 72.8688 28.6577 76.7845C28.6577 80.6429 25.8779 83.368 21.9414 83.368" fill="white"/>
<path d="M43.5076 83.1205V73.8302C43.447 74.4532 43.2851 75.0622 43.0283 75.633L40.1208 83.1205H37.9506L35.3011 75.7685C35.0406 75.039 35.0119 74.828 34.8217 73.752V83.1309H32.6333V70.4512H35.5303L38.9172 79.4914C39.0543 79.8024 39.1422 80.1329 39.1777 80.471C39.2016 80.1341 39.2799 79.8032 39.4096 79.4914L42.9214 70.4512H45.8211V83.1205H43.5076Z" fill="white"/>
<path d="M50.9119 83.1205V70.4512H58.6286V72.5041H53.3295V75.633H57.6673V77.6886H53.3295V81.0676H58.8787V83.1205H50.9119Z" fill="white"/>
<path d="M68.0805 72.5041V83.1205H65.6602V72.5041H61.8591V70.4512H71.8815V72.5041H68.0805Z" fill="white"/>
<path d="M79.3091 73.3482L77.8502 77.9361H80.7889L79.3091 73.3482ZM82.4354 83.1205L81.4376 79.9942H77.1988L76.1567 83.1205H73.6218L78.2097 70.4512H80.3798L84.9677 83.1205H82.4354Z" fill="white"/>
<path d="M95.2818 73.4682C93.9375 72.8742 92.8433 72.5668 91.9992 72.5668C90.8659 72.5668 90.1364 73.0279 90.1364 73.7392C90.1364 74.2759 90.4438 74.6015 91.3453 75.0809C93.2862 76.123 94.5523 76.9254 95.1463 77.5194C95.717 78.1346 96.027 78.947 96.0113 79.786C96.0113 82.0499 94.3595 83.376 91.5563 83.376C89.7144 83.376 88.6019 82.8185 86.9502 82.0317L87.9662 79.8042C89.0995 80.419 90.2719 81.0521 91.5954 81.0521C92.7104 81.0521 93.4399 80.5545 93.4399 79.786C93.4399 79.2493 93.1507 78.8819 92.3248 78.4234L90.3657 77.3084C88.1199 76.024 87.4296 75.1773 87.4296 73.7965C87.4296 71.2043 89.8498 70.2429 92.0565 70.2429C93.6874 70.2429 94.8024 70.6103 96.2405 71.3007L95.2818 73.4682Z" fill="white"/>
<path d="M104.708 72.5041V83.1205H102.29V72.5041H98.489V70.4512H108.509V72.5041H104.708Z" fill="white"/>
<path d="M111.945 70.4512V83.1205H119.912V81.0676H114.363V77.6886H118.703V75.633H114.363V72.5041H119.662V70.4512H111.945Z" fill="white"/>
<path opacity="0.2" d="M60.2047 65.5221C63.9823 65.5221 67.0461 64.5816 67.0461 63.4197C67.0461 62.2577 63.9823 61.3198 60.2047 61.3198C56.4271 61.3198 53.3633 62.2603 53.3633 63.4197C53.3633 64.579 56.4245 65.5221 60.2047 65.5221Z" fill="#53585F"/>
<path d="M68.8021 42.054L68.7735 40.5039L68.6276 17.6714V15.9598C68.6281 15.8332 68.5945 15.7087 68.5304 15.5995C68.4663 15.4904 68.374 15.4004 68.2632 15.3392C68.1524 15.2779 68.0271 15.2475 67.9006 15.2513C67.774 15.2551 67.6508 15.2928 67.5438 15.3606C67.295 15.4876 67.0586 15.6376 66.8378 15.8087C65.3085 16.9446 61.8253 20.4981 61.8253 29.356C61.8253 35.5304 62.3958 36.1583 63.6672 38.1774C64.9386 40.1964 65.0871 42.8668 65.1053 43.5833C61.7883 44.5447 58.2681 44.5564 54.9448 43.6171V42.5568L54.752 33.9204C54.7155 32.3729 54.6791 30.9243 54.6452 29.6165C54.6265 29.4763 54.6567 29.3339 54.7307 29.2134C54.8048 29.0928 54.9181 29.0015 55.0516 28.9548C56.1081 28.4809 56.9458 27.6245 57.3964 26.5579C57.7502 25.6671 57.9357 24.7184 57.9435 23.7599C57.9926 22.1698 57.9543 20.5782 57.8288 18.9923C57.8083 18.1455 57.601 17.3138 57.2218 16.5564L56.8284 16.2255C56.5522 16.1187 56.2787 16.0041 55.9947 15.9181C55.7108 15.8321 55.5492 15.9181 55.5284 16.2437C55.4945 16.8195 55.4867 17.3979 55.4737 17.9762C55.4372 19.6254 55.4033 21.2797 55.3669 22.9262C55.3642 23.0933 55.3415 23.2595 55.2991 23.4212C55.2689 23.5439 55.1952 23.6513 55.0917 23.7237C54.9882 23.7961 54.8619 23.8284 54.7364 23.8146C54.6107 23.8307 54.4834 23.8005 54.3783 23.7295C54.2733 23.6585 54.1978 23.5517 54.1658 23.429C54.1193 23.2684 54.0896 23.1034 54.0773 22.9366C53.9036 20.7326 53.7299 18.5286 53.5562 16.3245C53.5514 16.2503 53.5427 16.1764 53.5302 16.1031C53.4859 15.8894 53.3973 15.793 53.1811 15.7852C52.9023 15.7852 52.6235 15.7852 52.3422 15.7852C52.1572 15.7852 52.1051 15.9155 52.0816 16.0718C52.0295 16.684 51.9826 17.2963 51.9331 17.9085C51.8011 19.5863 51.6674 21.2641 51.5319 22.9419C51.5185 23.1087 51.4879 23.2737 51.4407 23.4342C51.3496 23.7208 51.1255 23.8355 50.7738 23.8042C50.6475 23.8038 50.5261 23.7554 50.4342 23.6688C50.3423 23.5822 50.2867 23.4639 50.2788 23.3379C50.2449 23.0096 50.2319 22.6813 50.2241 22.3505C50.1841 20.3844 50.1468 18.4165 50.1121 16.447C50.1172 16.3708 50.1025 16.2947 50.0693 16.226C50.0361 16.1573 49.9857 16.0984 49.9229 16.0551C49.8601 16.0117 49.7872 15.9854 49.7112 15.9788C49.6352 15.9721 49.5588 15.9853 49.4894 16.0171C49.2884 16.0928 49.0918 16.1798 48.9006 16.2776L48.6896 16.4626C48.3686 16.9909 48.1892 17.5929 48.1685 18.2107C48.093 19.2893 48.0122 20.3679 47.981 21.4464C47.918 22.724 47.9773 24.0047 48.1581 25.2709C48.4603 27.1181 49.4738 28.4207 51.2349 29.1137C51.5762 29.2466 51.6205 29.3143 51.6127 29.6816C51.6127 30.1792 51.5918 30.6768 51.5788 31.1718C51.558 32.0368 51.5345 32.9955 51.5137 33.9959V34.1757L51.4329 38.1174C51.4147 39.0788 51.3965 40.0688 51.3782 41.0718L51.3574 42.1764C49.8429 41.3755 48.447 40.3681 47.2098 39.183L46.806 38.7792C44.2688 36.1923 42.5473 32.9172 41.8551 29.3605C41.1629 25.8038 41.5306 22.1221 42.9125 18.7726C44.2944 15.423 46.6296 12.5531 49.6283 10.519C52.627 8.48504 56.157 7.37654 59.7802 7.33118H59.9677C63.5881 7.34327 67.1254 8.41754 70.1411 10.4208C73.1568 12.4241 75.5183 15.2684 76.9328 18.601C78.3474 21.9336 78.7529 25.6081 78.0991 29.169C77.4453 32.7299 75.7608 36.0206 73.2545 38.6333C73.1373 38.7453 72.7647 39.1257 72.301 39.605C71.239 40.5557 70.0711 41.3809 68.8204 42.0644L68.8021 42.054ZM85.804 24.5623C85.4692 17.9355 82.6007 11.6907 77.7915 7.11916C72.9824 2.54761 66.6004 -0.00110085 59.9651 3.56696e-07H59.9469C53.3169 0.00410651 46.9416 2.55375 42.1372 7.12256C37.3328 11.6914 34.466 17.9305 34.1288 24.5519C34.1054 24.9844 34.095 25.4247 34.095 25.8545C34.095 26.2401 34.095 26.6361 34.1236 27.006C34.1236 27.0425 34.1236 27.079 34.1236 27.1155C34.1419 27.4802 34.1705 27.8423 34.2018 28.2019L34.2174 28.3556C34.2513 28.7073 34.293 29.059 34.3425 29.3977C34.3425 29.4498 34.3555 29.5045 34.3633 29.5592C34.4154 29.9066 34.4727 30.2539 34.5353 30.6013C34.5353 30.6482 34.5561 30.6977 34.5639 30.7446C34.6317 31.0963 34.7072 31.4454 34.788 31.7867L34.8114 31.8779C35.0761 32.9973 35.4164 34.0975 35.8301 35.1709C35.8359 35.1887 35.8429 35.2061 35.8509 35.223C35.9838 35.5669 36.1114 35.9056 36.273 36.2417C36.273 36.2651 36.2912 36.286 36.3016 36.3068C36.4501 36.6429 36.6064 36.9763 36.768 37.3046C36.768 37.3202 36.7862 37.3359 36.794 37.3541C36.9607 37.6902 37.1327 38.0211 37.3151 38.3467C38.2477 40.0245 39.3635 41.5938 40.642 43.0257C40.7592 43.1586 40.8843 43.2863 41.0067 43.4165L50.4247 53.1471L60.1814 63.2347L73.3431 49.2679L78.9392 43.4634C79.0694 43.3253 79.1997 43.1768 79.3352 43.0362C80.5951 41.5987 81.6916 40.0259 82.6048 38.3467C82.7871 38.0211 82.9591 37.6902 83.1258 37.3541C83.1258 37.3359 83.1441 37.3202 83.1519 37.3046C83.3134 36.9763 83.4697 36.6429 83.6182 36.3068C83.6182 36.286 83.6365 36.2651 83.6469 36.2417C83.7954 35.9056 83.9361 35.5669 84.0689 35.223C84.077 35.2061 84.0839 35.1887 84.0898 35.1709C84.5023 34.106 84.8426 33.0146 85.1084 31.9039L85.1319 31.8127C85.2126 31.4662 85.2882 31.1171 85.3559 30.7706C85.3559 30.7237 85.3742 30.6742 85.3846 30.6273C85.4471 30.28 85.5044 29.9326 85.5565 29.5852L85.58 29.4237C85.6269 29.0746 85.6686 28.7229 85.705 28.3816C85.705 28.3295 85.705 28.28 85.718 28.2279C85.7493 27.8684 85.778 27.5063 85.7962 27.1415C85.7962 27.105 85.7962 27.0686 85.7962 27.0321C85.8144 26.6517 85.8249 26.2662 85.8249 25.8806C85.8249 25.4403 85.8249 25 85.791 24.5779" fill="#FEBE10"/>
<path opacity="0.5" d="M51.3235 49.9428C49.9079 49.9421 48.4935 49.8594 47.0874 49.6953L50.4247 53.1472L60.1814 63.2348L73.3457 49.268L78.9392 43.4635C79.0695 43.3254 79.1997 43.1769 79.3352 43.0363C80.5951 41.5988 81.6917 40.026 82.6048 38.3468C82.7872 38.0212 82.9591 37.6903 83.1259 37.3542L83.1519 37.3047C83.3134 36.9764 83.4697 36.643 83.6183 36.3069C83.6183 36.2861 83.6365 36.2652 83.6469 36.2418C83.7954 35.9057 83.9361 35.567 84.069 35.2231L84.0898 35.171C84.5023 34.1061 84.8427 33.0147 85.1085 31.904L85.1319 31.8128C85.2127 31.4663 85.2882 31.1172 85.356 30.7707C85.356 30.7238 85.3742 30.6743 85.382 30.6274C85.4471 30.2836 85.5045 29.9371 85.5566 29.5853C85.5566 29.5306 85.5722 29.4785 85.5774 29.4238C85.6269 29.0747 85.6686 28.723 85.7025 28.3817C85.7025 28.3296 85.7025 28.2801 85.7155 28.228C85.7485 27.8685 85.7745 27.5064 85.7936 27.1416C85.7936 27.1051 85.7936 27.0687 85.7936 27.0322C85.8119 26.6492 85.8223 26.2663 85.8223 25.8807C85.8223 25.6202 85.8093 25.146 85.8093 25.146C80.828 39.5999 67.2651 49.9428 51.3235 49.9428Z" fill="#DCA71D"/>
<path d="M10.8872 91.1656C10.3236 91.1652 9.76165 91.2281 9.21206 91.3532C8.90204 92.2468 8.5373 93.4609 8.5373 94.1226C8.5373 94.7036 8.72748 94.9615 9.17298 94.9615C10.0266 94.9247 10.8416 94.5954 11.4812 94.0288C11.5328 94.0549 11.5758 94.0953 11.6049 94.1453C11.634 94.1952 11.6481 94.2525 11.6454 94.3102C11.6454 94.8312 9.86077 95.5789 8.74051 95.5789C7.93028 95.5789 7.41704 95.2012 7.41704 94.3493C7.41704 93.6875 7.67757 92.635 8.06575 91.5408C7.77282 91.6033 7.49323 91.7171 7.23989 91.8769C7.15419 91.7335 7.10333 91.572 7.09139 91.4053C7.09139 91.1891 7.68538 91.0145 8.29501 90.8843C8.86296 89.3211 9.36056 88.3989 10.361 88.6672C10.1187 88.9512 9.7253 89.8969 9.38922 90.7514C9.84914 90.6732 10.3141 90.628 10.7804 90.6159C11.4422 90.6159 11.9007 90.8322 11.7939 91.2516C11.4973 91.1804 11.1918 91.1532 10.8872 91.1709V91.1656ZM6.90381 89.0867C6.90381 88.1826 10.5512 87.1692 12.3332 87.1692C13.3753 87.1692 13.8468 87.3854 13.8468 87.8439C13.838 88.0276 13.7609 88.2014 13.6306 88.3311C13.37 88.0993 12.8881 87.9664 11.9424 87.9664C10.3349 87.9664 8.0918 88.5187 7.10441 89.5999C7.02365 89.5738 6.90381 89.2352 6.90381 89.0788" fill="#FEBE10"/>
<path d="M14.0476 93.057C14.3026 93.0379 14.5408 92.9225 14.7139 92.7344C14.8871 92.5462 14.9823 92.2993 14.9802 92.0436C14.9802 91.8664 14.9125 91.7596 14.764 91.7596C14.4123 91.7596 14.0345 92.4083 13.847 93.0414C13.9131 93.0533 13.9803 93.0586 14.0476 93.057ZM17.7158 92.2259C17.7158 93.0075 15.8921 95.4825 13.946 95.4825C13.068 95.4825 12.5964 95.037 12.5964 94.1173C12.5964 92.7131 13.7714 91.1995 15.1887 91.1995C15.6628 91.1995 16.0406 91.4287 16.0406 91.8899C16.0406 92.9007 15.0402 93.5234 14.0397 93.5234C13.9402 93.5222 13.8409 93.5135 13.7427 93.4973C13.7078 93.6202 13.6903 93.7473 13.6906 93.8751C13.6906 94.443 13.8105 94.9172 14.3367 94.9172C15.6081 94.9172 17.1218 93.0935 17.5256 91.9446C17.5857 91.961 17.6379 91.9984 17.6728 92.05C17.7077 92.1016 17.7229 92.164 17.7158 92.2259Z" fill="#FEBE10"/>
<path d="M22.6137 93.4349C22.6137 94.0289 21.0062 95.4748 20.0475 95.4748C19.5603 95.4748 19.3441 95.1361 19.3441 94.6645C19.3441 94.0289 19.8156 92.9347 19.8156 92.4214C19.8156 92.286 19.8156 92.0958 19.6541 92.0958C19.2216 92.0958 17.6819 94.3806 17.4527 95.394C17.0462 95.394 16.6294 95.3263 16.6294 94.9485C16.6294 94.3389 17.1947 92.8253 17.1947 92.0828C17.1941 91.9336 17.1621 91.7863 17.1009 91.6503C17.5751 91.3898 18.2499 91.421 18.2499 91.9108C18.1855 92.4925 18.049 93.064 17.8434 93.612C18.3984 92.5986 19.3441 91.3298 20.1882 91.3298C20.6884 91.3298 20.9333 91.6138 20.9333 92.1114C20.9333 92.7992 20.4331 93.8804 20.4331 94.4353C20.4331 94.6229 20.4721 94.7583 20.6076 94.7583C21.014 94.7583 22.202 93.6094 22.3922 93.1249C22.4566 93.1443 22.5133 93.1834 22.5544 93.2367C22.5955 93.2899 22.6189 93.3546 22.6215 93.4218" fill="#FEBE10"/>
<path d="M27.8006 91.7048C27.7305 91.702 27.6605 91.7134 27.5948 91.7383C27.5292 91.7633 27.4693 91.8012 27.4186 91.8499C27.368 91.8985 27.3278 91.9569 27.3003 92.0215C27.2728 92.0861 27.2587 92.1556 27.2587 92.2259C27.2587 92.8068 28.3008 93.4295 28.3008 94.1459C28.3008 95.063 27.4072 95.5502 26.4902 95.5502C25.8962 95.5502 25.4351 95.3339 25.4351 94.9692C25.4356 94.888 25.4528 94.8077 25.4855 94.7333C25.5182 94.659 25.5658 94.5921 25.6252 94.5367C25.7425 94.68 25.8883 94.7973 26.0533 94.8812C26.2184 94.9651 26.3991 95.0137 26.584 95.0239C26.6747 95.0288 26.7653 95.0141 26.8498 94.9808C26.9342 94.9474 27.0105 94.8962 27.0733 94.8306C27.1362 94.7651 27.1841 94.6867 27.2139 94.6009C27.2436 94.5151 27.2545 94.4239 27.2457 94.3335C27.2457 93.7812 26.1776 93.1455 26.1776 92.4421C26.1776 91.6319 27.0712 91.1733 27.9205 91.1733C28.4624 91.1733 28.8531 91.3765 28.8531 91.6944C28.8494 91.7685 28.8292 91.8408 28.7941 91.9062C28.7589 91.9715 28.7097 92.0282 28.6499 92.0722C28.5402 91.9564 28.4087 91.8634 28.263 91.7986C28.1172 91.7337 27.9601 91.6983 27.8006 91.6944" fill="#FEBE10"/>
<path d="M34.8374 95.5684C34.4727 95.5684 34.3164 95.3079 34.3164 94.9067C34.3164 93.974 34.9521 92.205 34.6264 92.205C34.0741 92.205 32.4667 94.6097 32.438 95.4329C31.9169 95.4199 31.5887 95.2454 31.5887 94.8937C31.6208 94.5595 31.6836 94.2289 31.7763 93.9063C31.9795 93.1377 32.1957 92.192 31.9664 92.192C31.5053 92.192 30.1428 94.3257 30.0333 95.5137C29.6816 95.5137 29.1033 95.4746 29.1033 94.9927C29.1033 94.2371 29.7363 92.7652 29.7363 91.8664C29.7502 91.6649 29.7227 91.4628 29.6556 91.2724C30.075 91.0301 30.8175 91.0118 30.8175 91.5694C30.7666 92.1343 30.653 92.6917 30.4788 93.2315C30.8592 92.5411 31.844 91.4078 32.5057 91.4078C32.5907 91.4035 32.6757 91.4168 32.7554 91.4468C32.835 91.4769 32.9075 91.5231 32.9685 91.5826C33.0294 91.642 33.0773 91.7134 33.1093 91.7923C33.1414 91.8712 33.1567 91.9558 33.1544 92.0409C33.1226 92.4758 33.0457 92.9062 32.9252 93.3253C33.3707 92.5698 34.3971 91.3792 35.1553 91.3792C35.2438 91.3776 35.3317 91.3948 35.4131 91.4297C35.4945 91.4647 35.5675 91.5165 35.6273 91.5817C35.6872 91.647 35.7325 91.7243 35.7603 91.8084C35.788 91.8925 35.7976 91.9815 35.7883 92.0696C35.7883 93.096 35.3559 93.961 35.3559 94.7712C35.3474 94.9713 35.4102 95.1679 35.533 95.3261C35.3319 95.4849 35.0857 95.5761 34.8296 95.5867" fill="#FEBE10"/>
<path d="M39.9047 95.3783C39.4852 95.3783 39.1231 95.0292 39.1231 94.3128C39.12 94.1375 39.1384 93.9625 39.1778 93.7917C38.8131 94.4118 37.8934 95.4669 37.2056 95.4669C36.6377 95.4669 36.4241 95.1412 36.4241 94.6567C36.4241 93.0935 38.1253 91.1292 40.0714 91.1292C40.7332 91.1292 41.1656 91.3324 41.1656 91.7388C41.1645 91.9014 41.1075 92.0587 41.0041 92.1843C40.8625 92.0293 40.6891 91.9067 40.4957 91.8249C40.3024 91.743 40.0937 91.7039 39.8838 91.7101C38.6672 91.7101 37.56 93.2107 37.56 94.3727C37.56 94.5759 37.6277 94.6697 37.7475 94.6697C38.0732 94.6697 38.9772 93.427 39.3107 92.8173C39.5426 92.3197 39.9464 92.0358 40.5013 92.3719C40.2438 92.8389 40.1135 93.3653 40.1235 93.8985C40.1235 94.3727 40.2173 94.7921 40.5821 95.0084C40.5104 95.1248 40.4087 95.2198 40.2877 95.2835C40.1667 95.3472 40.0308 95.3773 39.8943 95.3705" fill="#FEBE10"/>
<path d="M44.9276 95.3783C44.5108 95.3783 44.1591 95.0292 44.1591 94.3128C44.156 94.1375 44.1744 93.9625 44.2138 93.7917C43.8465 94.4118 42.9294 95.4669 42.239 95.4669C41.6737 95.4669 41.4705 95.1412 41.4705 94.6567C41.4705 93.0935 43.1717 91.1292 45.1178 91.1292C45.7795 91.1292 46.212 91.3324 46.212 91.7388C46.2109 91.9014 46.1539 92.0587 46.0505 92.1843C45.9085 92.0291 45.7346 91.9064 45.5408 91.8246C45.3471 91.7427 45.1379 91.7037 44.9276 91.7101C43.7136 91.7101 42.6037 93.2107 42.6037 94.3727C42.6037 94.5759 42.6715 94.6697 42.7939 94.6697C43.117 94.6697 44.0236 93.427 44.3571 92.8173C44.5863 92.3197 44.9928 92.0358 45.5477 92.3719C45.2902 92.8389 45.1599 93.3653 45.1699 93.8985C45.1699 94.3727 45.2637 94.7921 45.6284 95.0084C45.5565 95.1252 45.4545 95.2205 45.333 95.2842C45.2115 95.3479 45.075 95.3778 44.9381 95.3705" fill="#FEBE10"/>
<path d="M46.8451 94.8936C46.8451 93.6639 48.6975 87.4087 48.6844 85.7596C49.156 85.7075 49.6562 85.869 49.6562 86.3562C49.6562 86.9632 48.9137 89.6909 48.3718 92.205C48.9528 91.624 49.9949 91.1368 50.7504 91.1368C51.1699 91.1499 51.4382 91.3817 51.4382 91.7308C51.4382 92.3665 50.7504 92.8928 49.7109 93.3409C50.1434 94.1225 50.5889 94.8519 50.925 95.0421C50.8468 95.2015 50.7261 95.3362 50.5762 95.4313C50.4264 95.5265 50.2531 95.5784 50.0757 95.5814C49.5754 95.5814 49.0335 94.1094 48.6037 93.3409C49.1977 93.122 50.3049 92.6244 50.3049 92.1112C50.3049 91.9627 50.2502 91.8663 50.0444 91.8663C49.5728 91.8663 48.7079 92.3274 48.1816 93.083C48.0045 93.974 47.856 94.8128 47.7882 95.4616C47.3297 95.4459 46.8425 95.3938 46.8425 94.8936" fill="#FEBE10"/>
<path d="M55.4918 92.5568C55.5179 93.4062 54.8562 94.5004 54.2361 95.0683C53.775 95.4747 53.2357 95.717 52.673 95.5894C52.6599 94.7661 52.5114 92.2937 51.8367 91.9029C52.0923 91.6794 52.417 91.5507 52.7563 91.5382C53.3894 91.5382 53.5379 93.414 53.6343 94.7661C54.1189 94.4404 54.6764 93.3879 54.6764 92.4214C54.6764 92.1087 54.6217 91.6763 54.6217 91.5564C54.6217 91.2177 55.0542 91.0145 55.5544 90.9755C55.6351 91.7727 56.1093 92.5152 56.5418 92.7991C56.3229 93.1222 55.7602 93.0597 55.4866 92.5829" fill="#FEBE10"/>
<path d="M63.3414 91.2595C63.963 90.8472 64.4723 90.2868 64.8234 89.6287C65.1745 88.9707 65.3564 88.2356 65.3527 87.4897C65.3527 87.1797 65.3136 86.9504 65.1234 86.9504C64.5555 86.9504 63.7061 89.2326 63.3414 91.2595ZM57.9642 94.0289C57.9642 94.4327 58.084 94.8652 58.4357 94.8652C59.2173 94.8652 59.7592 93.4479 59.7592 92.4475C59.7659 92.3486 59.7659 92.2494 59.7592 92.1505C59.3684 92.002 59.1105 91.7727 59.1105 91.434C59.1105 91.1735 59.3554 90.913 59.7878 90.913C60.2203 90.913 60.6241 91.2777 60.7857 91.8196C60.9694 91.8465 61.1549 91.8596 61.3406 91.8587C61.6321 91.8582 61.9226 91.8223 62.2055 91.7519C62.638 89.3603 63.9484 86.2522 65.4621 86.2522C66.1238 86.2522 66.5042 86.6847 66.5042 87.3334C66.5042 89.1831 65.0843 91.0485 63.2476 91.9004C63.1958 92.2716 63.1688 92.6458 63.1669 93.0206C63.1669 93.9924 63.3414 94.8052 64.0995 94.8052C65.0036 94.8052 66.327 93.4661 66.8142 92.4006C66.921 92.4266 66.9497 92.5204 66.9497 92.6611C66.9497 93.4713 65.126 95.4722 63.7348 95.4722C62.5051 95.4722 62.0596 94.4718 62.0596 93.2291C62.0642 92.9041 62.0868 92.5797 62.1274 92.2573C61.8252 92.3226 61.5168 92.354 61.2077 92.3511H60.856C60.8169 93.9142 59.7488 95.4774 58.1153 95.4774C57.3702 95.4774 56.8569 95.071 56.8569 94.2738C56.8569 92.8278 58.0319 91.0589 58.8578 91.7206C58.4383 92.0723 57.9798 93.1405 57.9798 94.0315" fill="#FEBE10"/>
<path d="M70.0265 87.7345C70.0265 87.2734 69.9041 86.9529 69.6618 86.9529C68.9584 86.9529 68.0283 89.8969 67.7834 91.7492C68.7838 91.1682 70.0265 89.3706 70.0265 87.7371V87.7345ZM70.5137 93.1117C70.5137 93.612 69.2111 95.4565 67.9736 95.4565C67.1764 95.4565 66.5537 94.727 66.5537 93.2264C66.5537 90.9442 68.0674 86.2417 69.9848 86.2417C70.7976 86.2417 71.0947 86.8487 71.0947 87.5652C71.0947 89.8213 69.1069 91.7336 67.7078 92.4161C67.6822 92.6131 67.6692 92.8115 67.6688 93.0101C67.6688 94.2945 67.9788 94.7791 68.3826 94.7791C69.0313 94.7791 70.1125 93.3749 70.3417 92.8356C70.3957 92.8537 70.4422 92.889 70.4742 92.936C70.5061 92.9831 70.5219 93.0393 70.5189 93.0961" fill="#FEBE10"/>
<path d="M71.35 93.057C71.605 93.0379 71.8432 92.9225 72.0163 92.7344C72.1895 92.5462 72.2847 92.2993 72.2827 92.0436C72.2827 91.8664 72.2149 91.7596 72.0664 91.7596C71.7147 91.7596 71.3369 92.4083 71.1468 93.0414C71.2137 93.0539 71.2819 93.0591 71.35 93.057ZM73.3352 94.5003C73.3352 94.9067 72.3504 95.4747 71.4047 95.4747C70.4173 95.4747 69.9041 95.0552 69.9041 94.1095C69.9041 92.7053 71.079 91.1917 72.5093 91.1917C72.9809 91.1917 73.3612 91.4209 73.3612 91.8794C73.3612 92.8929 72.3608 93.5155 71.3604 93.5155C71.2564 93.5144 71.1528 93.5048 71.0504 93.4869C71.024 93.6023 71.01 93.7202 71.0087 93.8386C71.0087 94.4612 71.2249 94.9067 71.8189 94.9067C72.3616 94.8739 72.8705 94.632 73.2388 94.232C73.3041 94.3034 73.3419 94.3958 73.3456 94.4925" fill="#FEBE10"/>
<path d="M79.9421 95.4747C79.8572 95.4852 79.771 95.4757 79.6905 95.4471C79.6099 95.4184 79.5371 95.3714 79.4779 95.3097C79.4188 95.2479 79.3748 95.1733 79.3495 95.0916C79.3243 95.0099 79.3184 94.9234 79.3324 94.839C80.4553 94.839 81.2369 93.4348 81.2369 92.4214C81.2369 92.1609 81.1848 91.9003 80.9946 91.9003C80.2391 91.9003 78.7515 93.5468 78.8348 95.5477C78.1184 95.5346 77.7927 95.3575 77.7927 94.6958C77.7927 93.9142 78.1861 92.5334 78.6446 90.9676C79.2256 88.9824 79.8613 86.6976 79.6867 85.8066C80.3094 85.8066 80.7679 86.0229 80.7679 86.5491C80.7679 87.0754 80.3224 88.6854 79.8509 90.2929C79.4861 91.5356 79.2699 92.252 79.2152 92.6011C79.6737 91.9524 80.5803 91.1422 81.3906 91.1422C81.5219 91.1331 81.6536 91.1525 81.7767 91.1991C81.8998 91.2457 82.0114 91.3184 82.1037 91.4122C82.196 91.5061 82.2669 91.6187 82.3116 91.7426C82.3562 91.8664 82.3735 91.9984 82.3623 92.1296C82.3623 93.5208 81.2134 95.4799 79.9316 95.4799" fill="#FEBE10"/>
<path d="M84.4103 93.057C84.6653 93.0379 84.9035 92.9225 85.0766 92.7344C85.2498 92.5462 85.345 92.2993 85.3429 92.0436C85.3429 91.8664 85.2752 91.7596 85.1267 91.7596C84.775 91.7596 84.3972 92.4083 84.2071 93.0414C84.2741 93.0534 84.3422 93.0587 84.4103 93.057ZM88.0837 92.2181C88.0837 92.9997 86.26 95.4747 84.3165 95.4747C83.4385 95.4747 82.9644 95.0292 82.9644 94.1095C82.9644 92.7053 84.1393 91.1917 85.5696 91.1917C86.0412 91.1917 86.4189 91.4209 86.4189 91.882C86.4189 92.8929 85.4211 93.5155 84.4207 93.5155C84.3212 93.5146 84.2219 93.5059 84.1237 93.4895C84.0867 93.612 84.0683 93.7393 84.069 93.8672C84.069 94.4352 84.1914 94.9093 84.7177 94.9093C85.9864 94.9093 87.5001 93.0857 87.9065 91.9368C87.9666 91.9537 88.0186 91.9917 88.0531 92.0439C88.0875 92.096 88.1021 92.1588 88.0941 92.2207" fill="#FEBE10"/>
<path d="M90.9363 87.7345C90.9363 87.2734 90.8164 86.9529 90.5715 86.9529C89.8707 86.9529 88.938 89.8969 88.6931 91.7492C89.6936 91.1682 90.9363 89.3706 90.9363 87.7371V87.7345ZM91.4234 93.1117C91.4234 93.612 90.1208 95.4565 88.8833 95.4565C88.0861 95.4565 87.4661 94.727 87.4661 93.2264C87.4661 90.9442 88.9771 86.2417 90.8972 86.2417C91.7074 86.2417 92.0044 86.8487 92.0044 87.5652C92.0044 89.8213 90.0192 91.7336 88.6176 92.4161C88.5921 92.6123 88.579 92.8098 88.5785 93.0075C88.5785 94.2919 88.8885 94.7765 89.2949 94.7765C89.9411 94.7765 91.0222 93.3723 91.2515 92.833C91.3054 92.8511 91.3519 92.8864 91.3839 92.9334C91.4159 92.9805 91.4316 93.0367 91.4287 93.0935" fill="#FEBE10"/>
<path d="M92.2599 93.057C92.5149 93.0379 92.7531 92.9225 92.9262 92.7344C93.0994 92.5462 93.1946 92.2993 93.1926 92.0436C93.1926 91.8664 93.1248 91.7596 92.9763 91.7596C92.6246 91.7596 92.2469 92.4083 92.0593 93.0414C92.1254 93.054 92.1926 93.0592 92.2599 93.057ZM94.2477 94.5003C94.2477 94.9067 93.2603 95.4747 92.3146 95.4747C91.3272 95.4747 90.814 95.0552 90.814 94.1095C90.814 92.7053 91.9915 91.1917 93.4192 91.1917C93.8934 91.1917 94.2711 91.4209 94.2711 91.8794C94.2711 92.8929 93.2707 93.5155 92.2703 93.5155C92.1664 93.5144 92.0627 93.5048 91.9603 93.4869C91.9352 93.6025 91.9212 93.7203 91.9186 93.8386C91.9186 94.4612 92.1348 94.9067 92.7314 94.9067C93.2733 94.8735 93.7813 94.6317 94.1487 94.232C94.2152 94.3029 94.254 94.3954 94.2581 94.4925" fill="#FEBE10"/>
<path d="M98.6375 92.5568C98.6636 93.4062 98.0018 94.5004 97.3792 95.0683C96.9206 95.4747 96.3814 95.717 95.816 95.5894C95.803 94.7661 95.6545 92.2937 94.9797 91.9029C95.2343 91.6794 95.5582 91.5506 95.8968 91.5382C96.5325 91.5382 96.6784 93.414 96.7748 94.7661C97.2619 94.4404 97.8169 93.3879 97.8169 92.4214C97.8169 92.1087 97.7621 91.6763 97.7621 91.5564C97.7621 91.2177 98.1946 91.0145 98.6948 90.9755C98.7756 91.7727 99.2471 92.5152 99.6796 92.7991C99.4634 93.1222 98.9111 93.0597 98.6375 92.5829" fill="#FEBE10"/>
<path d="M102.386 88.9903C102.386 89.4488 101.912 90.4493 101.144 90.1783C101.281 89.6592 101.381 89.1306 101.441 88.5969C101.912 88.5969 102.386 88.7194 102.386 88.9903ZM101.084 94.2712C101.084 94.5682 101.097 94.8391 101.287 94.8391C101.582 94.796 101.85 94.6468 102.043 94.4197C102.118 94.4873 102.166 94.5799 102.178 94.6802C102.178 95.0032 101.355 95.4904 100.693 95.4904C100.219 95.4904 99.9766 95.1674 99.9766 94.5447C99.9766 93.7345 100.328 92.3693 100.558 91.7076C100.719 91.1865 101.245 90.9781 101.8 91.3298C101.54 91.8978 101.084 93.5313 101.084 94.2738" fill="#FEBE10"/>
<path d="M108.782 93.4349C108.782 94.0289 107.175 95.4748 106.214 95.4748C105.729 95.4748 105.513 95.1361 105.513 94.6645C105.513 94.0289 105.984 92.9347 105.984 92.4214C105.984 92.286 105.971 92.0958 105.823 92.0958C105.39 92.0958 103.851 94.3806 103.621 95.394C103.215 95.394 102.795 95.3263 102.795 94.9485C102.795 94.3389 103.363 92.8253 103.363 92.0828C103.363 91.9336 103.331 91.7863 103.27 91.6503C103.741 91.3898 104.418 91.421 104.418 91.9108C104.354 92.4925 104.218 93.064 104.012 93.612C104.567 92.5986 105.513 91.3298 106.357 91.3298C106.857 91.3298 107.102 91.6138 107.102 92.1114C107.102 92.7992 106.602 93.8804 106.602 94.4353C106.602 94.6229 106.641 94.7583 106.776 94.7583C107.183 94.7583 108.371 93.6094 108.558 93.1249C108.623 93.1439 108.68 93.1828 108.722 93.236C108.764 93.2893 108.787 93.3543 108.79 93.4218" fill="#FEBE10"/>
<path d="M110.603 91.8534C109.955 91.8534 109.28 93.2993 109.28 94.3518C109.28 94.5837 109.322 94.7582 109.525 94.7582C110.046 94.7582 110.794 93.8542 111.132 93.057C111.2 92.8251 111.32 92.3536 111.362 92.1504C111.15 91.9689 110.882 91.8642 110.603 91.8534ZM111.906 94.4326C111.192 97.9471 110.069 100 107.894 100C106.625 100 105.651 99.1767 105.651 97.9731C105.651 97.3244 105.964 96.7565 106.664 96.8242C106.607 97.0807 106.58 97.343 106.584 97.6058C106.584 98.7 107.245 99.4294 108.178 99.4294C109.637 99.4294 110.163 97.7803 110.583 95.7534C110.665 95.2014 110.802 94.6587 110.989 94.133C110.515 94.7687 109.686 95.4981 108.905 95.4981C108.433 95.4981 108.149 95.2689 108.149 94.6879C108.149 93.4582 109.257 91.3011 110.809 91.3011C111.068 91.3185 111.316 91.4089 111.526 91.5616C111.633 91.2229 111.716 90.8998 111.836 90.6028C112 90.1287 112.552 90.1026 113.011 90.4804C112.607 91.3323 112.229 92.9398 111.917 94.4508" fill="#FEBE10"/>
</g>
<defs>
<clipPath id="clip0_802_541">
<rect width="119.912" height="100" fill="white"/>
</clipPath>
</defs>
</svg>
