<svg width="101" height="70" viewBox="0 0 101 70" fill="none" xmlns="http://www.w3.org/2000/svg">
<g clip-path="url(#clip0_945_661)">
<path d="M7.49633 59.1525V63.4071H2.03212V59.1525H0V69.79H2.03212V65.2292H7.49633V69.79H9.52626V59.1525H7.49633Z" fill="#5A5C63"/>
<path d="M18.4226 60.7143C16.408 60.7143 14.9228 62.3265 14.9228 64.4702C14.9228 66.6138 16.4058 68.226 18.4226 68.226C20.4395 68.226 21.905 66.6313 21.905 64.4702C21.905 62.309 20.422 60.7143 18.4226 60.7143ZM18.4226 70C15.0934 69.9978 12.7659 67.7097 12.7659 64.4702C12.7506 61.189 15.054 58.9578 18.4226 58.9578C21.7913 58.9578 24.0618 61.1824 24.0618 64.4702C24.0618 67.7097 21.7279 69.9978 18.4226 69.9978" fill="#5A5C63"/>
<path d="M36.53 69.79V61.9896C36.4791 62.5127 36.3432 63.024 36.1275 63.5033L33.6863 69.79H31.8642L29.6396 63.6171C29.4208 63.0046 29.3968 62.8274 29.2371 61.924V69.7988H27.3997V59.1525H29.8321L32.6757 66.7429C32.7909 67.0041 32.8647 67.2815 32.8945 67.5654C32.9145 67.2825 32.9803 67.0048 33.0892 66.7429L36.0378 59.1525H38.4724V69.79H36.53Z" fill="#5A5C63"/>
<path d="M42.7468 69.79V59.1525H49.226V60.8762H44.7768V63.5033H48.4188V65.2292H44.7768V68.0663H49.436V69.79H42.7468Z" fill="#5A5C63"/>
<path d="M57.1621 60.8762V69.79H55.1299V60.8762H51.9385V59.1525H60.3535V60.8762H57.1621Z" fill="#5A5C63"/>
<path d="M66.5899 61.5849L65.3649 65.437H67.8323L66.5899 61.5849ZM69.2148 69.79L68.377 67.1651H64.818L63.9431 69.79H61.8147L65.6668 59.1525H67.4889L71.341 69.79H69.2148Z" fill="#5A5C63"/>
<path d="M80.001 61.6856C78.8723 61.1868 77.9536 60.9287 77.2449 60.9287C76.2933 60.9287 75.6808 61.3159 75.6808 61.9131C75.6808 62.3637 75.939 62.6371 76.6958 63.0396C78.3254 63.9146 79.3885 64.5883 79.8873 65.087C80.3664 65.6036 80.6267 66.2857 80.6135 66.9901C80.6135 68.891 79.2267 70.0044 76.873 70.0044C75.3265 70.0044 74.3924 69.5363 73.0056 68.8757L73.8587 67.0054C74.8102 67.5216 75.7946 68.0532 76.9058 68.0532C77.842 68.0532 78.4545 67.6354 78.4545 66.9901C78.4545 66.5395 78.2117 66.2311 77.5183 65.8461L75.8733 64.9099C73.9878 63.8314 73.4081 63.1205 73.4081 61.9612C73.4081 59.7847 75.4402 58.9775 77.293 58.9775C78.6623 58.9775 79.5985 59.286 80.806 59.8656L80.001 61.6856Z" fill="#5A5C63"/>
<path d="M87.915 60.8762V69.79H85.8851V60.8762H82.6936V59.1525H91.1065V60.8762H87.915Z" fill="#5A5C63"/>
<path d="M93.9917 59.1525V69.79H100.681V68.0663H96.0216V65.2292H99.6659V63.5033H96.0216V60.8762H100.471V59.1525H93.9917Z" fill="#5A5C63"/>
<path opacity="0.2" d="M50.5494 55.0139C53.7211 55.0139 56.2936 54.2243 56.2936 53.2487C56.2936 52.2731 53.7211 51.4856 50.5494 51.4856C47.3776 51.4856 44.8052 52.2753 44.8052 53.2487C44.8052 54.2221 47.3754 55.0139 50.5494 55.0139" fill="#5A5C63"/>
<path d="M57.7679 35.3095L57.7439 34.008L57.6214 14.8373V13.4002C57.6218 13.2939 57.5936 13.1894 57.5398 13.0977C57.4859 13.0061 57.4084 12.9306 57.3154 12.8791C57.2224 12.8277 57.1172 12.8022 57.0109 12.8054C56.9047 12.8085 56.8012 12.8402 56.7114 12.8971C56.5025 13.0037 56.304 13.1297 56.1186 13.2733C54.8346 14.2271 51.91 17.2107 51.91 24.648C51.91 29.8322 52.389 30.3594 53.4565 32.0546C54.524 33.7499 54.6486 35.992 54.6639 36.5935C51.8789 37.4008 48.9233 37.4106 46.133 36.622V35.7317L45.9711 28.4804C45.9405 27.181 45.9099 25.9648 45.8814 24.8667C45.8657 24.749 45.8911 24.6294 45.9532 24.5282C46.0154 24.427 46.1105 24.3503 46.2227 24.3111C47.1097 23.9133 47.8131 23.1942 48.1913 22.2987C48.4884 21.5507 48.6442 20.7541 48.6507 19.9494C48.6919 18.6143 48.6598 17.2779 48.5545 15.9464C48.5372 15.2354 48.3632 14.537 48.0448 13.9011L47.7145 13.6233C47.4826 13.5336 47.2529 13.4374 47.0145 13.3652C46.7761 13.293 46.6405 13.3652 46.623 13.6386C46.5945 14.1221 46.588 14.6077 46.577 15.0933C46.5464 16.4779 46.518 17.8669 46.4873 19.2494C46.4851 19.3897 46.466 19.5293 46.4305 19.665C46.4051 19.768 46.3432 19.8582 46.2563 19.919C46.1694 19.9797 46.0634 20.0069 45.958 19.9953C45.8524 20.0089 45.7455 19.9834 45.6573 19.9239C45.5692 19.8643 45.5057 19.7746 45.4789 19.6716C45.4399 19.5367 45.4149 19.3982 45.4046 19.2581C45.2587 17.4076 45.1129 15.557 44.9671 13.7064C44.963 13.6441 44.9557 13.5821 44.9452 13.5205C44.908 13.3411 44.8336 13.2602 44.6521 13.2536C44.418 13.2536 44.184 13.2536 43.9477 13.2536C43.7924 13.2536 43.7487 13.363 43.729 13.4943C43.6852 14.0083 43.6459 14.5224 43.6043 15.0364C43.4935 16.4451 43.3812 17.8538 43.2674 19.2625C43.2561 19.4026 43.2305 19.5411 43.1909 19.6759C43.1143 19.9166 42.9262 20.0128 42.6309 19.9866C42.5249 19.9862 42.4229 19.9456 42.3458 19.8729C42.2686 19.8002 42.2219 19.7008 42.2153 19.595C42.1868 19.3194 42.1759 19.0438 42.1693 18.766C42.1358 17.1152 42.1044 15.463 42.0753 13.8093C42.0796 13.7453 42.0672 13.6814 42.0394 13.6237C42.0115 13.5661 41.9692 13.5166 41.9165 13.4802C41.8638 13.4438 41.8025 13.4217 41.7387 13.4162C41.6749 13.4106 41.6107 13.4217 41.5525 13.4483C41.3837 13.5119 41.2187 13.5849 41.0581 13.6671L40.8809 13.8224C40.6115 14.2659 40.4608 14.7714 40.4435 15.2901C40.38 16.1957 40.3122 17.1013 40.286 18.0069C40.2331 19.0796 40.2829 20.1549 40.4347 21.2181C40.6885 22.769 41.5394 23.8627 43.0181 24.4445C43.3046 24.5561 43.3418 24.613 43.3352 24.9214C43.3352 25.3392 43.3177 25.757 43.3068 26.1726C43.2893 26.8988 43.2696 27.7038 43.2521 28.5438V28.6947L43.1843 32.0043C43.169 32.8115 43.1537 33.6427 43.1384 34.4849L43.1209 35.4123C41.8493 34.7399 40.6773 33.894 39.6385 32.899L39.2994 32.5599C37.1691 30.3879 35.7237 27.6381 35.1425 24.6518C34.5614 21.6655 34.8701 18.5743 36.0303 15.7619C37.1906 12.9495 39.1513 10.5398 41.6691 8.83204C44.1869 7.12424 47.1508 6.19352 50.1928 6.15543H50.3503C53.3901 6.16558 56.3601 7.06756 58.8921 8.74957C61.4242 10.4316 63.4069 12.8197 64.5946 15.6178C65.7824 18.416 66.1228 21.5012 65.5739 24.491C65.0249 27.4808 63.6106 30.2438 61.5062 32.4374C61.4078 32.5315 61.095 32.8508 60.7056 33.2533C59.8139 34.0515 58.8334 34.7444 57.7832 35.3183L57.7679 35.3095ZM72.0431 20.6231C71.762 15.0591 69.3535 9.8158 65.3156 5.97742C61.2778 2.13903 55.9193 -0.0009243 50.3481 2.9949e-07H50.3328C44.7662 0.00344792 39.4133 2.14419 35.3794 5.98027C31.3455 9.81635 28.9385 15.0549 28.6554 20.6144C28.6357 20.9775 28.627 21.3471 28.627 21.7081C28.627 22.0318 28.627 22.3643 28.651 22.6749C28.651 22.7055 28.651 22.7362 28.651 22.7668C28.6663 23.073 28.6904 23.3771 28.7166 23.6789L28.7298 23.808C28.7582 24.1033 28.7932 24.3986 28.8348 24.683C28.8348 24.7267 28.8457 24.7727 28.8523 24.8186C28.896 25.1103 28.9441 25.4019 28.9966 25.6936C28.9966 25.7329 29.0141 25.7745 29.0207 25.8139C29.0776 26.1092 29.141 26.4023 29.2088 26.6889L29.2285 26.7654C29.4507 27.7053 29.7365 28.6291 30.0838 29.5303C30.0887 29.5453 30.0945 29.5599 30.1013 29.5741C30.2128 29.8628 30.32 30.1472 30.4556 30.4294C30.4556 30.449 30.471 30.4665 30.4797 30.484C30.6044 30.7662 30.7356 31.0462 30.8713 31.3218C30.8713 31.335 30.8866 31.3481 30.8931 31.3634C31.0331 31.6456 31.1775 31.9234 31.3306 32.1968C32.1137 33.6056 33.0505 34.9231 34.124 36.1254C34.2224 36.237 34.3274 36.3442 34.4302 36.4535L42.3378 44.6236L50.5297 53.0933L61.5806 41.3665L66.2792 36.4929C66.3886 36.377 66.498 36.2523 66.6117 36.1342C67.6695 34.9272 68.5902 33.6067 69.3569 32.1968C69.51 31.9234 69.6544 31.6456 69.7944 31.3634C69.7944 31.3481 69.8097 31.335 69.8163 31.3218C69.9519 31.0462 70.0832 30.7662 70.2078 30.484C70.2078 30.4665 70.2232 30.449 70.2319 30.4294C70.3566 30.1472 70.4747 29.8628 70.5863 29.5741C70.593 29.5599 70.5989 29.5453 70.6038 29.5303C70.9501 28.6362 71.2359 27.7198 71.459 26.7873L71.4787 26.7107C71.5465 26.4198 71.61 26.1267 71.6669 25.8358C71.6669 25.7964 71.6822 25.7548 71.6909 25.7154C71.7434 25.4238 71.7915 25.1321 71.8353 24.8405L71.855 24.7049C71.8943 24.4117 71.9293 24.1164 71.96 23.8299C71.96 23.7861 71.96 23.7446 71.9709 23.7008C71.9972 23.399 72.0212 23.0949 72.0365 22.7887C72.0365 22.758 72.0365 22.7274 72.0365 22.6968C72.0518 22.3774 72.0606 22.0537 72.0606 21.7299C72.0606 21.3603 72.0606 20.9906 72.0322 20.6362" fill="#FCBF00"/>
<path opacity="0.5" d="M43.0924 41.9331C41.9038 41.9325 40.7162 41.8631 39.5356 41.7253L42.3377 44.6236L50.5297 53.0933L61.5828 41.3665L66.2792 36.4929C66.3886 36.377 66.4979 36.2523 66.6117 36.1342C67.6695 34.9273 68.5902 33.6067 69.3569 32.1968C69.51 31.9234 69.6544 31.6456 69.7944 31.3634L69.8163 31.3218C69.9519 31.0462 70.0831 30.7662 70.2078 30.4841C70.2078 30.4666 70.2231 30.4491 70.2319 30.4294C70.3566 30.1472 70.4747 29.8628 70.5862 29.5741L70.6037 29.5303C70.9501 28.6362 71.2358 27.7198 71.459 26.7873L71.4787 26.7107C71.5465 26.4198 71.61 26.1267 71.6668 25.8358C71.6668 25.7964 71.6821 25.7548 71.6887 25.7155C71.7434 25.4267 71.7915 25.1358 71.8353 24.8405C71.8353 24.7945 71.8484 24.7508 71.8528 24.7049C71.8943 24.4117 71.9293 24.1164 71.9578 23.8299C71.9578 23.7861 71.9578 23.7446 71.9687 23.7008C71.9964 23.399 72.0183 23.0949 72.0343 22.7887C72.0343 22.758 72.0343 22.7274 72.0343 22.6968C72.0496 22.3752 72.0584 22.0537 72.0584 21.73C72.0584 21.5112 72.0474 21.1131 72.0474 21.1131C67.8651 33.249 56.4773 41.9331 43.0924 41.9331Z" fill="#E2AD00"/>
</g>
<defs>
<clipPath id="clip0_945_661">
<rect width="100.681" height="70" fill="white"/>
</clipPath>
</defs>
</svg>
