<svg width="120" height="101" viewBox="0 0 120 101" fill="none" xmlns="http://www.w3.org/2000/svg">
<path d="M8.93476 70.503V75.5739H2.42206V70.503H0V83.1816H2.42206V77.7457H8.93476V83.1816H11.3542V70.503H8.93476Z" fill="#5A5C63"/>
<path d="M21.9576 72.3645C19.5564 72.3645 17.7861 74.286 17.7861 76.841C17.7861 79.396 19.5537 81.3175 21.9576 81.3175C24.3614 81.3175 26.1082 79.4169 26.1082 76.841C26.1082 74.2651 24.3405 72.3645 21.9576 72.3645ZM21.9576 83.4319C17.9894 83.4293 15.2154 80.7022 15.2154 76.841C15.1972 72.9302 17.9425 70.2709 21.9576 70.2709C25.9726 70.2709 28.6788 72.9224 28.6788 76.841C28.6788 80.7022 25.897 83.4293 21.9576 83.4293" fill="#5A5C63"/>
<path d="M43.5398 83.1816V73.8845C43.4791 74.5079 43.3171 75.1173 43.0601 75.6886L40.1505 83.1816H37.9787L35.3272 75.8242C35.0665 75.0942 35.0378 74.883 34.8475 73.8062V83.192H32.6575V70.503H35.5566L38.946 79.5498C39.0832 79.8611 39.1711 80.1918 39.2067 80.5301C39.2306 80.193 39.3089 79.8619 39.4387 79.5498L42.9532 70.503H45.8549V83.1816H43.5398Z" fill="#5A5C63"/>
<path d="M50.9492 83.1816V70.503H58.6716V72.5574H53.3687V75.6886H57.7096V77.7457H53.3687V81.1272H58.9219V83.1816H50.9492Z" fill="#5A5C63"/>
<path d="M68.1304 72.5574V83.1816H65.7084V72.5574H61.9045V70.503H71.9343V72.5574H68.1304Z" fill="#5A5C63"/>
<path d="M79.3672 73.4021L77.9072 77.9933H80.8481L79.3672 73.4021ZM82.4958 83.1816L81.4973 80.053H77.2554L76.2126 83.1816H73.6758L78.267 70.503H80.4388L85.03 83.1816H82.4958Z" fill="#5A5C63"/>
<path d="M95.3519 73.5221C94.0066 72.9276 92.9116 72.62 92.0669 72.62C90.9327 72.62 90.2027 73.0815 90.2027 73.7932C90.2027 74.3303 90.5104 74.6562 91.4124 75.1359C93.3548 76.1788 94.6219 76.9818 95.2163 77.5762C95.7874 78.1919 96.0976 79.0049 96.0819 79.8445C96.0819 82.1101 94.4289 83.4371 91.6236 83.4371C89.7804 83.4371 88.6671 82.8792 87.0142 82.0918L88.031 79.8627C89.1651 80.478 90.3383 81.1115 91.6627 81.1115C92.7786 81.1115 93.5086 80.6136 93.5086 79.8445C93.5086 79.3074 93.2192 78.9398 92.3927 78.4809L90.4322 77.365C88.1848 76.0797 87.4939 75.2324 87.4939 73.8506C87.4939 71.2565 89.9159 70.2944 92.1242 70.2944C93.7563 70.2944 94.8722 70.662 96.3113 71.3529L95.3519 73.5221Z" fill="#5A5C63"/>
<path d="M104.785 72.5574V83.1816H102.365V72.5574H98.5613V70.503H108.588V72.5574H104.785Z" fill="#5A5C63"/>
<path d="M112.027 70.503V83.1816H120V81.1272H114.447V77.7457H118.79V75.6886H114.447V72.5574H119.75V70.503H112.027Z" fill="#5A5C63"/>
<path opacity="0.2" d="M60.249 65.5702C64.0294 65.5702 67.0954 64.629 67.0954 63.4662C67.0954 62.3034 64.0294 61.3648 60.249 61.3648C56.4686 61.3648 53.4026 62.306 53.4026 63.4662C53.4026 64.6264 56.466 65.5702 60.249 65.5702Z" fill="#5A5C63"/>
<path d="M68.8525 42.0849L68.8239 40.5336L68.6779 17.6844V15.9715C68.6783 15.8448 68.6448 15.7203 68.5806 15.611C68.5164 15.5017 68.4241 15.4117 68.3132 15.3504C68.2023 15.2891 68.0769 15.2587 67.9503 15.2625C67.8236 15.2663 67.7003 15.304 67.5933 15.3718C67.3443 15.4989 67.1077 15.6491 66.8867 15.8203C65.3563 16.957 61.8705 20.5132 61.8705 29.3775C61.8705 35.5565 62.4415 36.1848 63.7138 38.2054C64.9861 40.226 65.1347 42.8983 65.153 43.6153C61.8335 44.5774 58.3108 44.5892 54.985 43.6492V42.5881L54.7921 33.9453C54.7556 32.3966 54.7191 30.9471 54.6852 29.6383C54.6665 29.4979 54.6967 29.3554 54.7708 29.2348C54.8449 29.1142 54.9583 29.0228 55.0919 28.976C56.1491 28.5018 56.9875 27.6448 57.4384 26.5774C57.7924 25.686 57.9781 24.7365 57.9859 23.7773C58.035 22.1861 57.9967 20.5933 57.8712 19.0062C57.8506 18.1589 57.6432 17.3265 57.2637 16.5685L56.87 16.2374C56.5936 16.1305 56.3199 16.0158 56.0357 15.9298C55.7515 15.8437 55.5899 15.9298 55.569 16.2557C55.5351 16.8319 55.5273 17.4107 55.5143 17.9894C55.4778 19.6398 55.4439 21.2953 55.4074 22.9431C55.4047 23.1103 55.382 23.2766 55.3396 23.4384C55.3094 23.5611 55.2356 23.6687 55.132 23.7411C55.0284 23.8135 54.9021 23.8459 54.7764 23.8321C54.6506 23.8482 54.5232 23.818 54.4181 23.7469C54.313 23.6759 54.2374 23.569 54.2055 23.4462C54.1589 23.2855 54.1292 23.1204 54.1168 22.9535C53.943 20.7478 53.7692 18.5422 53.5954 16.3365C53.5906 16.2622 53.5819 16.1883 53.5693 16.1149C53.525 15.9011 53.4364 15.8046 53.22 15.7968C52.941 15.7968 52.662 15.7968 52.3805 15.7968C52.1954 15.7968 52.1432 15.9272 52.1197 16.0836C52.0676 16.6963 52.0207 17.309 51.9711 17.9217C51.839 19.6007 51.7052 21.2797 51.5696 22.9587C51.5562 23.1256 51.5256 23.2908 51.4784 23.4515C51.3871 23.7382 51.1629 23.853 50.8109 23.8217C50.6846 23.8213 50.5631 23.7728 50.4711 23.6862C50.3791 23.5995 50.3235 23.4811 50.3156 23.355C50.2817 23.0265 50.2687 22.698 50.2608 22.3669C50.2209 20.3993 50.1835 18.4301 50.1487 16.459C50.1539 16.3829 50.1391 16.3067 50.1059 16.2379C50.0727 16.1692 50.0223 16.1102 49.9594 16.0668C49.8966 16.0235 49.8236 15.9972 49.7475 15.9905C49.6715 15.9838 49.595 15.9971 49.5256 16.0289C49.3245 16.1046 49.1277 16.1916 48.9364 16.2896L48.7252 16.4747C48.404 17.0033 48.2244 17.6058 48.2038 18.2241C48.1282 19.3035 48.0474 20.3828 48.0161 21.4622C47.953 22.7407 48.0124 24.0223 48.1934 25.2895C48.4958 27.138 49.51 28.4416 51.2724 29.1351C51.614 29.268 51.6583 29.3358 51.6505 29.7034C51.6505 30.2014 51.6296 30.6994 51.6166 31.1947C51.5957 32.0603 51.5722 33.0198 51.5514 34.0209V34.2008L51.4706 38.1454C51.4523 39.1075 51.4341 40.0982 51.4158 41.102L51.395 42.2074C49.8794 41.4059 48.4825 40.3977 47.2443 39.2118L46.8402 38.8077C44.3012 36.2189 42.5784 32.9414 41.8857 29.3821C41.193 25.8228 41.5609 22.1384 42.9439 18.7864C44.3268 15.4343 46.6637 12.5623 49.6646 10.5268C52.6655 8.49127 56.1981 7.38196 59.8239 7.33656H60.0116C63.6347 7.34866 67.1746 8.42372 70.1924 10.4285C73.2103 12.4332 75.5736 15.2796 76.9892 18.6146C78.4048 21.9497 78.8106 25.6269 78.1563 29.1904C77.502 32.7539 75.8163 36.0471 73.3082 38.6617C73.1909 38.7738 72.818 39.1544 72.354 39.6341C71.2912 40.5854 70.1224 41.4113 68.8708 42.0953L68.8525 42.0849ZM85.8669 24.5804C85.5318 17.9487 82.6612 11.6993 77.8485 7.12439C73.0359 2.54948 66.6492 -0.00110166 60.009 3.56958e-07H59.9908C53.3559 0.00410953 46.976 2.55563 42.168 7.12779C37.3601 11.7 34.4912 17.9437 34.1538 24.5699C34.1303 25.0027 34.1199 25.4433 34.1199 25.8735C34.1199 26.2594 34.1199 26.6557 34.1486 27.0259C34.1486 27.0624 34.1486 27.0989 34.1486 27.1354C34.1668 27.5004 34.1955 27.8628 34.2268 28.2226L34.2424 28.3764C34.2763 28.7284 34.318 29.0803 34.3676 29.4193C34.3676 29.4714 34.3806 29.5261 34.3884 29.5809C34.4406 29.9285 34.4979 30.2761 34.5605 30.6238C34.5605 30.6707 34.5813 30.7202 34.5892 30.7672C34.6569 31.1191 34.7326 31.4685 34.8134 31.81L34.8368 31.9013C35.1017 33.0216 35.4423 34.1226 35.8562 35.1967C35.8621 35.2145 35.869 35.232 35.8771 35.2489C36.0101 35.593 36.1378 35.932 36.2995 36.2683C36.2995 36.2917 36.3177 36.3126 36.3281 36.3335C36.4768 36.6698 36.6332 37.0035 36.7948 37.332C36.7948 37.3476 36.8131 37.3633 36.8209 37.3815C36.9878 37.7179 37.1598 38.049 37.3423 38.3749C38.2757 40.0539 39.3923 41.6244 40.6717 43.0573C40.789 43.1903 40.9141 43.3181 41.0367 43.4484L50.4616 53.1862L60.2254 63.2811L73.3968 49.3041L78.997 43.4953C79.1274 43.3572 79.2577 43.2086 79.3933 43.0678C80.6541 41.6292 81.7515 40.0553 82.6653 38.3749C82.8478 38.049 83.0199 37.7179 83.1867 37.3815C83.1867 37.3633 83.205 37.3476 83.2128 37.332C83.3744 37.0035 83.5309 36.6698 83.6795 36.3335C83.6795 36.3126 83.6977 36.2917 83.7082 36.2683C83.8568 35.932 83.9976 35.593 84.1305 35.2489C84.1386 35.232 84.1455 35.2145 84.1514 35.1967C84.5642 34.1311 84.9048 33.0388 85.1708 31.9273L85.1942 31.8361C85.2751 31.4893 85.3507 31.14 85.4185 30.7932C85.4185 30.7463 85.4367 30.6968 85.4471 30.6498C85.5097 30.3022 85.5671 29.9546 85.6192 29.607L85.6427 29.4453C85.6896 29.096 85.7313 28.744 85.7678 28.4025C85.7678 28.3503 85.7678 28.3008 85.7809 28.2486C85.8121 27.8888 85.8408 27.5265 85.8591 27.1615C85.8591 27.125 85.8591 27.0885 85.8591 27.052C85.8773 26.6713 85.8877 26.2854 85.8877 25.8996C85.8877 25.459 85.8877 25.0184 85.8539 24.596" fill="#FCBF00"/>
<path opacity="0.5" d="M51.3611 49.9794C49.9444 49.9786 48.5289 49.8959 47.1218 49.7317L50.4616 53.1862L60.2254 63.2811L73.3994 49.3041L78.997 43.4953C79.1274 43.3572 79.2577 43.2086 79.3933 43.0678C80.6541 41.6292 81.7515 40.0553 82.6653 38.3749C82.8478 38.049 83.0199 37.7179 83.1867 37.3815L83.2128 37.332C83.3745 37.0035 83.5309 36.6698 83.6795 36.3335C83.6795 36.3126 83.6978 36.2917 83.7082 36.2683C83.8568 35.932 83.9976 35.593 84.1305 35.2489L84.1514 35.1967C84.5642 34.1311 84.9048 33.0388 85.1708 31.9274L85.1943 31.8361C85.2751 31.4894 85.3507 31.14 85.4185 30.7932C85.4185 30.7463 85.4367 30.6968 85.4445 30.6498C85.5097 30.3057 85.5671 29.9589 85.6192 29.607C85.6192 29.5522 85.6349 29.5001 85.6401 29.4453C85.6896 29.096 85.7313 28.744 85.7652 28.4025C85.7652 28.3503 85.7652 28.3008 85.7783 28.2486C85.8113 27.8889 85.8374 27.5265 85.8565 27.1615C85.8565 27.125 85.8565 27.0885 85.8565 27.052C85.8747 26.6687 85.8852 26.2854 85.8852 25.8996C85.8852 25.6389 85.8721 25.1644 85.8721 25.1644C80.8872 39.6289 67.3143 49.9794 51.3611 49.9794Z" fill="#E2AD00"/>
<path d="M10.8953 91.2325C10.3312 91.2321 9.76888 91.295 9.21888 91.4203C8.90863 92.3145 8.54363 93.5295 8.54363 94.1917C8.54363 94.7731 8.73395 95.0312 9.17978 95.0312C10.0341 94.9944 10.8497 94.6648 11.4897 94.0978C11.5413 94.1239 11.5843 94.1644 11.6135 94.2143C11.6426 94.2643 11.6567 94.3216 11.654 94.3794C11.654 94.9008 9.86807 95.6491 8.74699 95.6491C7.93616 95.6491 7.42255 95.2711 7.42255 94.4185C7.42255 93.7563 7.68326 92.703 8.07173 91.608C7.77858 91.6705 7.49879 91.7844 7.24526 91.9443C7.1595 91.8008 7.1086 91.6392 7.09665 91.4724C7.09665 91.256 7.69109 91.0813 8.30116 90.951C8.86952 89.3867 9.36749 88.4637 10.3686 88.7323C10.1262 89.0165 9.7325 89.9629 9.39617 90.818C9.85644 90.7398 10.3217 90.6945 10.7884 90.6824C11.4506 90.6824 11.9095 90.8988 11.8026 91.3186C11.5058 91.2473 11.2 91.2201 10.8953 91.2378V91.2325ZM6.90894 89.152C6.90894 88.2473 10.559 87.2332 12.3423 87.2332C13.3851 87.2332 13.857 87.4495 13.857 87.9084C13.8482 88.0922 13.771 88.2661 13.6406 88.3959C13.3799 88.1639 12.8976 88.0309 11.9512 88.0309C10.3426 88.0309 8.0978 88.5837 7.10969 89.6656C7.02887 89.6396 6.90894 89.3006 6.90894 89.1442" fill="#FCBF00"/>
<path d="M14.0579 93.1253C14.3131 93.1062 14.5515 92.9908 14.7247 92.8025C14.898 92.6142 14.9933 92.367 14.9913 92.1111C14.9913 91.9339 14.9235 91.827 14.7749 91.827C14.4229 91.827 14.0449 92.4761 13.8572 93.1097C13.9234 93.1216 13.9906 93.1269 14.0579 93.1253ZM17.7288 92.2936C17.7288 93.0758 15.9038 95.5526 13.9562 95.5526C13.0776 95.5526 12.6057 95.1068 12.6057 94.1865C12.6057 92.7812 13.7815 91.2664 15.1998 91.2664C15.6743 91.2664 16.0524 91.4958 16.0524 91.9573C16.0524 92.9689 15.0512 93.592 14.0501 93.592C13.9505 93.5909 13.8511 93.5821 13.7529 93.5659C13.7179 93.6889 13.7004 93.8162 13.7007 93.944C13.7007 94.5123 13.8207 94.9869 14.3473 94.9869C15.6196 94.9869 17.1344 93.1618 17.5385 92.0121C17.5986 92.0285 17.6509 92.0659 17.6858 92.1176C17.7207 92.1692 17.736 92.2317 17.7288 92.2936Z" fill="#FCBF00"/>
<path d="M22.6303 93.5034C22.6303 94.0978 21.0216 95.5448 20.0622 95.5448C19.5747 95.5448 19.3583 95.2058 19.3583 94.734C19.3583 94.0978 19.8302 93.0028 19.8302 92.4892C19.8302 92.3536 19.8302 92.1633 19.6685 92.1633C19.2357 92.1633 17.6949 94.4498 17.4655 95.464C17.0587 95.464 16.6416 95.3962 16.6416 95.0181C16.6416 94.4081 17.2074 92.8933 17.2074 92.1503C17.2067 92.001 17.1747 91.8536 17.1135 91.7175C17.588 91.4568 18.2633 91.488 18.2633 91.9782C18.1988 92.5604 18.0622 93.1322 17.8565 93.6807C18.4119 92.6665 19.3583 91.3968 20.203 91.3968C20.7036 91.3968 20.9486 91.681 20.9486 92.1789C20.9486 92.8672 20.4481 93.9492 20.4481 94.5045C20.4481 94.6922 20.4872 94.8278 20.6227 94.8278C21.0295 94.8278 22.2183 93.6781 22.4087 93.1931C22.4731 93.2126 22.5298 93.2517 22.5709 93.305C22.6121 93.3583 22.6355 93.4231 22.6381 93.4903" fill="#FCBF00"/>
<path d="M27.8212 91.7722C27.751 91.7694 27.6809 91.7808 27.6152 91.8058C27.5495 91.8307 27.4895 91.8687 27.4389 91.9174C27.3882 91.9661 27.348 92.0245 27.3205 92.0892C27.293 92.1538 27.2788 92.2234 27.2789 92.2936C27.2789 92.875 28.3217 93.4982 28.3217 94.2151C28.3217 95.1328 27.4275 95.6204 26.5098 95.6204C25.9153 95.6204 25.4539 95.404 25.4539 95.039C25.4544 94.9577 25.4716 94.8774 25.5044 94.803C25.5371 94.7285 25.5847 94.6616 25.6442 94.6062C25.7615 94.7496 25.9074 94.867 26.0726 94.9509C26.2378 95.0349 26.4186 95.0835 26.6036 95.0937C26.6944 95.0987 26.7851 95.0839 26.8696 95.0506C26.9541 95.0172 27.0305 94.9659 27.0933 94.9003C27.1562 94.8347 27.2042 94.7563 27.234 94.6704C27.2637 94.5846 27.2746 94.4933 27.2658 94.4028C27.2658 93.8501 26.1969 93.214 26.1969 92.51C26.1969 91.6992 27.0912 91.2404 27.9411 91.2404C28.4834 91.2404 28.8745 91.4437 28.8745 91.7618C28.8707 91.8359 28.8505 91.9083 28.8154 91.9737C28.7802 92.0391 28.7309 92.0958 28.6711 92.1398C28.5613 92.024 28.4297 91.9309 28.2838 91.866C28.138 91.8012 27.9807 91.7657 27.8212 91.7618" fill="#FCBF00"/>
<path d="M34.8631 95.6386C34.4981 95.6386 34.3417 95.3779 34.3417 94.9764C34.3417 94.0431 34.9778 92.2728 34.652 92.2728C34.0992 92.2728 32.4906 94.6792 32.4619 95.5031C31.9405 95.49 31.612 95.3154 31.612 94.9634C31.6441 94.629 31.707 94.2982 31.7997 93.9753C32.0031 93.2062 32.2195 92.2598 31.99 92.2598C31.5286 92.2598 30.165 94.395 30.0555 95.5839C29.7035 95.5839 29.1248 95.5448 29.1248 95.0625C29.1248 94.3064 29.7583 92.8333 29.7583 91.9339C29.7722 91.7323 29.7447 91.53 29.6775 91.3394C30.0972 91.097 30.8403 91.0787 30.8403 91.6367C30.7893 92.202 30.6756 92.7598 30.5013 93.3C30.882 92.6091 31.8675 91.475 32.5297 91.475C32.6148 91.4707 32.6998 91.484 32.7795 91.5141C32.8592 91.5441 32.9318 91.5904 32.9928 91.6499C33.0537 91.7094 33.1017 91.7808 33.1338 91.8598C33.1658 91.9387 33.1812 92.0234 33.1789 92.1085C33.147 92.5438 33.0701 92.9745 32.9495 93.3939C33.3953 92.6378 34.4225 91.4463 35.1812 91.4463C35.2698 91.4447 35.3578 91.462 35.4392 91.4969C35.5206 91.5319 35.5937 91.5837 35.6536 91.649C35.7135 91.7144 35.7589 91.7917 35.7866 91.8758C35.8144 91.96 35.824 92.0491 35.8147 92.1372C35.8147 93.1644 35.382 94.03 35.382 94.8408C35.3735 95.0411 35.4363 95.2379 35.5592 95.3962C35.3579 95.555 35.1116 95.6463 34.8553 95.6569" fill="#FCBF00"/>
<path d="M39.9339 95.4483C39.5141 95.4483 39.1517 95.099 39.1517 94.382C39.1486 94.2066 39.167 94.0315 39.2065 93.8606C38.8415 94.4811 37.9211 95.537 37.2328 95.537C36.6645 95.537 36.4507 95.2111 36.4507 94.7261C36.4507 93.1618 38.1532 91.196 40.1007 91.196C40.7629 91.196 41.1957 91.3994 41.1957 91.8061C41.1946 91.9689 41.1375 92.1263 41.0341 92.2519C40.8924 92.0968 40.7188 91.9742 40.5254 91.8923C40.3319 91.8104 40.123 91.7712 39.913 91.7774C38.6955 91.7774 37.5874 93.2792 37.5874 94.442C37.5874 94.6453 37.6552 94.7392 37.7751 94.7392C38.101 94.7392 39.0057 93.4956 39.3394 92.8855C39.5715 92.3875 39.9756 92.1033 40.5309 92.4397C40.2732 92.907 40.1428 93.4339 40.1529 93.9675C40.1529 94.442 40.2467 94.8617 40.6117 95.0781C40.54 95.1946 40.4382 95.2897 40.3172 95.3535C40.1961 95.4172 40.0601 95.4473 39.9234 95.4405" fill="#FCBF00"/>
<path d="M44.9607 95.4483C44.5435 95.4483 44.1916 95.099 44.1916 94.382C44.1885 94.2066 44.2069 94.0315 44.2463 93.8606C43.8787 94.4811 42.961 95.537 42.2701 95.537C41.7043 95.537 41.501 95.2111 41.501 94.7261C41.501 93.1618 43.2035 91.196 45.151 91.196C45.8132 91.196 46.246 91.3994 46.246 91.8061C46.2449 91.9689 46.1878 92.1263 46.0844 92.2519C45.9423 92.0966 45.7683 91.9739 45.5744 91.892C45.3804 91.8101 45.1711 91.771 44.9607 91.7774C43.7457 91.7774 42.6351 93.2792 42.6351 94.442C42.6351 94.6453 42.7029 94.7392 42.8254 94.7392C43.1487 94.7392 44.056 93.4956 44.3897 92.8855C44.6191 92.3875 45.0259 92.1033 45.5812 92.4397C45.3235 92.907 45.1931 93.4339 45.2032 93.9675C45.2032 94.442 45.297 94.8617 45.662 95.0781C45.59 95.195 45.4879 95.2904 45.3663 95.3542C45.2447 95.4179 45.1082 95.4478 44.9711 95.4405" fill="#FCBF00"/>
<path d="M46.8796 94.9634C46.8796 93.7328 48.7333 87.473 48.7202 85.8227C49.1921 85.7706 49.6927 85.9322 49.6927 86.4197C49.6927 87.0272 48.9496 89.7569 48.4074 92.2728C48.9888 91.6914 50.0316 91.2039 50.7877 91.2039C51.2075 91.2169 51.476 91.449 51.476 91.7983C51.476 92.4345 50.7877 92.9611 49.7474 93.4096C50.1802 94.1917 50.6261 94.9217 50.9624 95.112C50.8841 95.2715 50.7634 95.4063 50.6134 95.5016C50.4634 95.5968 50.2901 95.6487 50.1124 95.6517C49.6119 95.6517 49.0696 94.1787 48.6394 93.4096C49.2338 93.1906 50.3419 92.6926 50.3419 92.179C50.3419 92.0304 50.2871 91.9339 50.0812 91.9339C49.6093 91.9339 48.7437 92.3954 48.217 93.1514C48.0397 94.0431 47.8911 94.8826 47.8234 95.5318C47.3645 95.5161 46.877 95.464 46.877 94.9634" fill="#FCBF00"/>
<path d="M55.5326 92.6248C55.5587 93.4747 54.8965 94.5697 54.276 95.1381C53.8145 95.5448 53.2748 95.7873 52.7117 95.6595C52.6986 94.8357 52.55 92.3615 51.8748 91.9704C52.1306 91.7467 52.4555 91.6179 52.7951 91.6054C53.4286 91.6054 53.5772 93.4825 53.6737 94.8357C54.1586 94.5098 54.7166 93.4565 54.7166 92.4892C54.7166 92.1763 54.6618 91.7436 54.6618 91.6236C54.6618 91.2847 55.0946 91.0813 55.5952 91.0422C55.676 91.84 56.1505 92.5831 56.5833 92.8673C56.3643 93.1905 55.8011 93.128 55.5274 92.6509" fill="#FCBF00"/>
<path d="M63.3879 91.3264C64.01 90.9138 64.5196 90.353 64.871 89.6944C65.2223 89.0359 65.4044 88.3003 65.4006 87.5538C65.4006 87.2436 65.3615 87.0141 65.1712 87.0141C64.6029 87.0141 63.7529 89.298 63.3879 91.3264ZM58.0067 94.0978C58.0067 94.5019 58.1267 94.9347 58.4786 94.9347C59.2608 94.9347 59.8031 93.5164 59.8031 92.5153C59.8098 92.4163 59.8098 92.317 59.8031 92.218C59.412 92.0694 59.1539 91.84 59.1539 91.5011C59.1539 91.2404 59.399 90.9796 59.8317 90.9796C60.2645 90.9796 60.6686 91.3446 60.8303 91.8869C61.0142 91.9139 61.1998 91.9269 61.3856 91.926C61.6774 91.9255 61.968 91.8896 62.2512 91.8192C62.684 89.4258 63.9954 86.3154 65.5101 86.3154C66.1724 86.3154 66.553 86.7482 66.553 87.3974C66.553 89.2485 65.1321 91.1152 63.2941 91.9678C63.2422 92.3392 63.2152 92.7138 63.2132 93.0888C63.2132 94.0613 63.3879 94.8747 64.1466 94.8747C65.0513 94.8747 66.3757 93.5347 66.8633 92.4683C66.9702 92.4944 66.9988 92.5883 66.9988 92.7291C66.9988 93.5399 65.1738 95.5422 63.7816 95.5422C62.551 95.5422 62.1052 94.541 62.1052 93.2974C62.1097 92.9723 62.1324 92.6476 62.173 92.3249C61.8706 92.3903 61.562 92.4217 61.2526 92.4188H60.9007C60.8616 93.9831 59.7926 95.5474 58.1579 95.5474C57.4123 95.5474 56.8987 95.1407 56.8987 94.3429C56.8987 92.8959 58.0745 91.1256 58.901 91.7879C58.4812 92.1398 58.0224 93.2088 58.0224 94.1004" fill="#FCBF00"/>
<path d="M70.0779 87.7989C70.0779 87.3374 69.9553 87.0168 69.7129 87.0168C69.0089 87.0168 68.0782 89.9628 67.8331 91.8165C68.8343 91.2351 70.0779 89.4362 70.0779 87.8015V87.7989ZM70.5654 93.1801C70.5654 93.6807 69.2618 95.5265 68.0234 95.5265C67.2256 95.5265 66.6025 94.7965 66.6025 93.2948C66.6025 91.0109 68.1173 86.305 70.0362 86.305C70.8496 86.305 71.1468 86.9125 71.1468 87.6294C71.1468 89.8872 69.1576 91.8009 67.7575 92.484C67.7319 92.6811 67.7188 92.8796 67.7184 93.0784C67.7184 94.3637 68.0287 94.8487 68.4328 94.8487C69.0819 94.8487 70.1639 93.4434 70.3933 92.9037C70.4473 92.9219 70.4939 92.9572 70.5259 93.0042C70.5579 93.0513 70.5736 93.1076 70.5706 93.1644" fill="#FCBF00"/>
<path d="M71.4025 93.1253C71.6577 93.1062 71.8961 92.9908 72.0694 92.8025C72.2427 92.6142 72.3379 92.367 72.3359 92.1111C72.3359 91.9339 72.2681 91.827 72.1195 91.827C71.7675 91.827 71.3895 92.4762 71.1992 93.1097C71.2662 93.1222 71.3344 93.1274 71.4025 93.1253ZM73.3892 94.5697C73.3892 94.9764 72.4037 95.5448 71.4573 95.5448C70.4692 95.5448 69.9556 95.125 69.9556 94.1786C69.9556 92.7734 71.1314 91.2586 72.5627 91.2586C73.0346 91.2586 73.4153 91.488 73.4153 91.9469C73.4153 92.9611 72.4141 93.5842 71.413 93.5842C71.3089 93.583 71.2052 93.5734 71.1027 93.5555C71.0763 93.671 71.0624 93.789 71.061 93.9075C71.061 94.5306 71.2774 94.9764 71.8718 94.9764C72.415 94.9435 72.9242 94.7015 73.2927 94.3012C73.3581 94.3727 73.396 94.4651 73.3996 94.5619" fill="#FCBF00"/>
<path d="M80.0008 95.5448C79.9158 95.5553 79.8296 95.5458 79.749 95.5171C79.6684 95.4884 79.5955 95.4413 79.5363 95.3796C79.4771 95.3178 79.4331 95.2431 79.4078 95.1613C79.3825 95.0796 79.3767 94.9931 79.3907 94.9086C80.5144 94.9086 81.2965 93.5034 81.2965 92.4892C81.2965 92.2285 81.2444 91.9678 81.054 91.9678C80.298 91.9678 78.8093 93.6155 78.8927 95.6178C78.1757 95.6047 77.8499 95.4275 77.8499 94.7652C77.8499 93.9831 78.2435 92.6013 78.7024 91.0344C79.2838 89.0477 79.9199 86.7612 79.7453 85.8696C80.3684 85.8696 80.8272 86.086 80.8272 86.6126C80.8272 87.1393 80.3814 88.7505 79.9095 90.3591C79.5445 91.6027 79.3281 92.3197 79.2734 92.6691C79.7322 92.0199 80.6395 91.2091 81.4503 91.2091C81.5817 91.1999 81.7136 91.2194 81.8368 91.266C81.96 91.3127 82.0716 91.3854 82.164 91.4793C82.2564 91.5732 82.3274 91.686 82.372 91.8099C82.4167 91.9338 82.434 92.0659 82.4228 92.1972C82.4228 93.5894 81.273 95.55 79.9903 95.55" fill="#FCBF00"/>
<path d="M84.4721 93.1253C84.7273 93.1062 84.9657 92.9908 85.139 92.8025C85.3123 92.6142 85.4075 92.367 85.4055 92.1111C85.4055 91.9339 85.3377 91.827 85.1891 91.827C84.8371 91.827 84.4591 92.4762 84.2688 93.1097C84.3358 93.1217 84.404 93.127 84.4721 93.1253ZM88.1482 92.2858C88.1482 93.068 86.3232 95.5448 84.3783 95.5448C83.4997 95.5448 83.0251 95.099 83.0251 94.1786C83.0251 92.7734 84.201 91.2586 85.6323 91.2586C86.1042 91.2586 86.4822 91.488 86.4822 91.9495C86.4822 92.9611 85.4837 93.5842 84.4826 93.5842C84.383 93.5833 84.2836 93.5746 84.1853 93.5581C84.1484 93.6807 84.1299 93.8081 84.1306 93.9362C84.1306 94.5045 84.2531 94.979 84.7798 94.979C86.0495 94.979 87.5642 93.154 87.9709 92.0043C88.0311 92.0213 88.0832 92.0593 88.1176 92.1115C88.1521 92.1636 88.1666 92.2264 88.1587 92.2884" fill="#FCBF00"/>
<path d="M91.003 87.7989C91.003 87.3374 90.8831 87.0168 90.638 87.0168C89.9367 87.0168 89.0033 89.9628 88.7582 91.8165C89.7594 91.2351 91.003 89.4362 91.003 87.8015V87.7989ZM91.4906 93.1801C91.4906 93.6807 90.187 95.5265 88.9486 95.5265C88.1508 95.5265 87.5303 94.7965 87.5303 93.2948C87.5303 91.0109 89.0424 86.305 90.9639 86.305C91.7747 86.305 92.072 86.9125 92.072 87.6294C92.072 89.8872 90.0853 91.8009 88.6826 92.484C88.6571 92.6802 88.6441 92.8779 88.6435 93.0758C88.6435 94.3611 88.9538 94.8461 89.3605 94.8461C90.0071 94.8461 91.0891 93.4408 91.3185 92.9011C91.3724 92.9193 91.419 92.9546 91.451 93.0016C91.483 93.0487 91.4987 93.105 91.4958 93.1618" fill="#FCBF00"/>
<path d="M92.3276 93.1253C92.5828 93.1062 92.8211 92.9908 92.9944 92.8025C93.1677 92.6142 93.263 92.367 93.261 92.1111C93.261 91.9339 93.1932 91.827 93.0446 91.827C92.6926 91.827 92.3146 92.4762 92.1268 93.1097C92.193 93.1223 92.2603 93.1275 92.3276 93.1253ZM94.3169 94.5697C94.3169 94.9764 93.3287 95.5448 92.3823 95.5448C91.3942 95.5448 90.8806 95.125 90.8806 94.1786C90.8806 92.7734 92.0591 91.2586 93.4878 91.2586C93.9623 91.2586 94.3403 91.488 94.3403 91.9469C94.3403 92.9611 93.3392 93.5842 92.338 93.5842C92.234 93.583 92.1302 93.5734 92.0278 93.5555C92.0027 93.6712 91.9887 93.7891 91.9861 93.9075C91.9861 94.5306 92.2025 94.9764 92.7995 94.9764C93.3418 94.9432 93.8501 94.7011 94.2178 94.3012C94.2843 94.3722 94.3231 94.4647 94.3273 94.5619" fill="#FCBF00"/>
<path d="M98.7098 92.6248C98.7358 93.4747 98.0736 94.5697 97.4505 95.1381C96.9917 95.5448 96.452 95.7873 95.8862 95.6595C95.8732 94.8357 95.7246 92.3615 95.0493 91.9704C95.3041 91.7467 95.6282 91.6178 95.967 91.6054C96.6032 91.6054 96.7492 93.4825 96.8456 94.8357C97.3332 94.5098 97.8885 93.4565 97.8885 92.4892C97.8885 92.1763 97.8338 91.7436 97.8338 91.6236C97.8338 91.2847 98.2665 91.0813 98.7671 91.0422C98.8479 91.84 99.3198 92.5831 99.7526 92.8673C99.5362 93.1905 98.9835 93.128 98.7098 92.6509" fill="#FCBF00"/>
<path d="M102.462 89.0555C102.462 89.5144 101.987 90.5156 101.218 90.2444C101.356 89.7249 101.455 89.196 101.515 88.6619C101.987 88.6619 102.462 88.7844 102.462 89.0555ZM101.158 94.3403C101.158 94.6375 101.171 94.9086 101.361 94.9086C101.656 94.8655 101.925 94.7162 102.118 94.4889C102.193 94.5566 102.241 94.6492 102.253 94.7496C102.253 95.0729 101.429 95.5604 100.767 95.5604C100.293 95.5604 100.05 95.2371 100.05 94.614C100.05 93.8032 100.402 92.437 100.631 91.7748C100.793 91.2534 101.32 91.0448 101.875 91.3968C101.614 91.9651 101.158 93.5998 101.158 94.3429" fill="#FCBF00"/>
<path d="M108.862 93.5034C108.862 94.0978 107.253 95.5448 106.291 95.5448C105.807 95.5448 105.59 95.2058 105.59 94.734C105.59 94.0978 106.062 93.0028 106.062 92.4892C106.062 92.3536 106.049 92.1633 105.9 92.1633C105.468 92.1633 103.927 94.4498 103.697 95.464C103.291 95.464 102.871 95.3962 102.871 95.0181C102.871 94.4081 103.439 92.8933 103.439 92.1503C103.439 92.001 103.407 91.8536 103.345 91.7175C103.817 91.4568 104.495 91.488 104.495 91.9782C104.431 92.5604 104.294 93.1322 104.088 93.6807C104.644 92.6665 105.59 91.3968 106.435 91.3968C106.935 91.3968 107.18 91.681 107.18 92.1789C107.18 92.8672 106.68 93.9492 106.68 94.5045C106.68 94.6922 106.719 94.8278 106.855 94.8278C107.261 94.8278 108.45 93.6781 108.638 93.1931C108.703 93.2122 108.76 93.2511 108.802 93.3044C108.843 93.3577 108.867 93.4228 108.87 93.4903" fill="#FCBF00"/>
<path d="M110.684 91.9209C110.035 91.9209 109.36 93.3678 109.36 94.4211C109.36 94.6532 109.402 94.8278 109.605 94.8278C110.127 94.8278 110.875 93.9232 111.214 93.1254C111.282 92.8933 111.401 92.4214 111.443 92.2181C111.231 92.0364 110.964 91.9317 110.684 91.9209ZM111.988 94.5019C111.274 98.019 110.15 100.073 107.973 100.073C106.703 100.073 105.728 99.2496 105.728 98.0451C105.728 97.3959 106.041 96.8275 106.742 96.8953C106.685 97.152 106.658 97.4145 106.662 97.6775C106.662 98.7725 107.324 99.5025 108.257 99.5025C109.717 99.5025 110.244 97.8522 110.664 95.8238C110.747 95.2714 110.883 94.7283 111.07 94.2021C110.596 94.8383 109.767 95.5683 108.985 95.5683C108.513 95.5683 108.229 95.3389 108.229 94.7575C108.229 93.5269 109.337 91.3681 110.89 91.3681C111.149 91.3856 111.398 91.476 111.607 91.6289C111.714 91.2899 111.798 90.9666 111.918 90.6694C112.082 90.1949 112.635 90.1688 113.094 90.5469C112.689 91.3994 112.311 93.008 111.999 94.5202" fill="#FCBF00"/>
</svg>
